<?xml version="1.0" encoding="UTF-8" standalone="no"?>
<!-- Created with Inkscape (http://www.inkscape.org/) -->

<svg
   xmlns:dc="http://purl.org/dc/elements/1.1/"
   xmlns:cc="http://creativecommons.org/ns#"
   xmlns:rdf="http://www.w3.org/1999/02/22-rdf-syntax-ns#"
   xmlns:svg="http://www.w3.org/2000/svg"
   xmlns="http://www.w3.org/2000/svg"
   xmlns:sodipodi="http://sodipodi.sourceforge.net/DTD/sodipodi-0.dtd"
   xmlns:inkscape="http://www.inkscape.org/namespaces/inkscape"
   version="1.1"
   id="svg2"
   xml:space="preserve"
   width="1066.6667"
   height="1066.6667"
   viewBox="0 0 1066.6667 1066.6667"
   sodipodi:docname="51519-O6WONC.svg"
   inkscape:version="0.92.4 5da689c313, 2019-01-14"><metadata
     id="metadata8"><rdf:RDF><cc:Work
         rdf:about=""><dc:format>image/svg+xml</dc:format><dc:type
           rdf:resource="http://purl.org/dc/dcmitype/StillImage" /><dc:title></dc:title></cc:Work></rdf:RDF></metadata><defs
     id="defs6"><clipPath
       clipPathUnits="userSpaceOnUse"
       id="clipPath34"><path
         d="m 2666.79,4691.72 c 0,-637.03 -516.42,-1153.44 -1153.45,-1153.44 -637.027,0 -1153.445,516.41 -1153.445,1153.44 0,637.03 516.418,1153.45 1153.445,1153.45 637.03,0 1153.45,-516.42 1153.45,-1153.45"
         id="path32"
         inkscape:connector-curvature="0" /></clipPath><clipPath
       clipPathUnits="userSpaceOnUse"
       id="clipPath100"><path
         d="m 2666.79,2223.18 c 0,-637.03 -516.42,-1153.44 -1153.45,-1153.44 -637.027,0 -1153.445,516.41 -1153.445,1153.44 0,637.03 516.418,1153.45 1153.445,1153.45 637.03,0 1153.45,-516.42 1153.45,-1153.45"
         id="path98"
         inkscape:connector-curvature="0" /></clipPath><clipPath
       clipPathUnits="userSpaceOnUse"
       id="clipPath164"><path
         d="m 5145.52,4691.72 c 0,-637.03 -516.42,-1153.44 -1153.45,-1153.44 -637.03,0 -1153.45,516.41 -1153.45,1153.44 0,637.03 516.42,1153.45 1153.45,1153.45 637.03,0 1153.45,-516.42 1153.45,-1153.45"
         id="path162"
         inkscape:connector-curvature="0" /></clipPath><clipPath
       clipPathUnits="userSpaceOnUse"
       id="clipPath236"><path
         d="m 5145.52,2223.18 c 0,-637.03 -516.42,-1153.44 -1153.45,-1153.44 -637.03,0 -1153.45,516.41 -1153.45,1153.44 0,637.03 516.42,1153.45 1153.45,1153.45 637.03,0 1153.45,-516.42 1153.45,-1153.45"
         id="path234"
         inkscape:connector-curvature="0" /></clipPath><clipPath
       clipPathUnits="userSpaceOnUse"
       id="clipPath306"><path
         d="m 7624.25,4691.72 c 0,-637.03 -516.42,-1153.44 -1153.45,-1153.44 -637.03,0 -1153.45,516.41 -1153.45,1153.44 0,637.03 516.42,1153.45 1153.45,1153.45 637.03,0 1153.45,-516.42 1153.45,-1153.45"
         id="path304"
         inkscape:connector-curvature="0" /></clipPath><clipPath
       clipPathUnits="userSpaceOnUse"
       id="clipPath370"><path
         d="m 7624.25,2223.18 c 0,-637.03 -516.42,-1153.44 -1153.45,-1153.44 -637.03,0 -1153.45,516.41 -1153.45,1153.44 0,637.03 516.42,1153.45 1153.45,1153.45 637.03,0 1153.45,-516.42 1153.45,-1153.45"
         id="path368"
         inkscape:connector-curvature="0" /></clipPath></defs><sodipodi:namedview
     pagecolor="#ffffff"
     bordercolor="#666666"
     borderopacity="1"
     objecttolerance="10"
     gridtolerance="10"
     guidetolerance="10"
     inkscape:pageopacity="0"
     inkscape:pageshadow="2"
     inkscape:window-width="1920"
     inkscape:window-height="1054"
     id="namedview4"
     showgrid="false"
     showborder="false"
     showguides="false"
     inkscape:zoom="1.9629255"
     inkscape:cx="516.12803"
     inkscape:cy="-253.18587"
     inkscape:window-x="0"
     inkscape:window-y="0"
     inkscape:window-maximized="1"
     inkscape:current-layer="g10" /><g
     id="g10"
     inkscape:groupmode="layer"
     inkscape:label="ink_ext_XXXXXX"
     transform="matrix(1.3333333,0,0,-1.3333333,0,1066.6667)"><path
       inkscape:connector-curvature="0"
       id="path26"
       style="fill:#76b2a4;fill-opacity:1;fill-rule:nonzero;stroke:none;stroke-width:0.1"
       d="m 266.679,469.172 c 0,-63.703 -51.642,-115.344 -115.345,-115.344 -63.7027,0 -115.3445,51.641 -115.3445,115.344 0,63.703 51.6418,115.345 115.3445,115.345 63.703,0 115.345,-51.642 115.345,-115.345" /><g
       id="g28"
       transform="scale(0.1)"><g
         clip-path="url(#clipPath34)"
         id="g30"><path
           inkscape:connector-curvature="0"
           id="path36"
           style="fill:#431616;fill-opacity:1;fill-rule:nonzero;stroke:none"
           d="m 1513.34,5555.29 c -365.79,0 -460.24,-262.01 -452.54,-559.38 7.71,-297.33 -37.48,-534.58 -37.48,-534.58 l 490.02,-3.61 v 1097.57" /><path
           inkscape:connector-curvature="0"
           id="path38"
           style="fill:#ecebe9;fill-opacity:1;fill-rule:nonzero;stroke:none"
           d="M 1313.15,4299 C 1206.38,4185.56 1076.91,4133.23 892.965,4106.52 671.559,4074.38 642.516,3867.05 642.516,3809.43 c 0,-57.62 0,-271.15 0,-271.15 H 1513.34 V 4299 h -200.19" /><path
           inkscape:connector-curvature="0"
           id="path40"
           style="fill:#e9ba98;fill-opacity:1;fill-rule:nonzero;stroke:none"
           d="M 1513.34,4542.97 H 1309.7 v -263.39 c 0,-39.12 64.58,-163.19 203.64,-163.19 v 426.58" /><path
           inkscape:connector-curvature="0"
           id="path42"
           style="fill:#ebccaf;fill-opacity:1;fill-rule:nonzero;stroke:none"
           d="m 1513.34,5371.79 c -300.28,0 -344.77,-217.1 -344.77,-484.91 0,-274.25 230.87,-484.9 344.77,-484.9 v 969.81" /><path
           inkscape:connector-curvature="0"
           id="path44"
           style="fill:#ebccaf;fill-opacity:1;fill-rule:nonzero;stroke:none"
           d="m 1161.83,4925.81 c -21.14,78.96 -50.05,78.96 -62.29,58.94 -12.23,-20.02 30.03,-97.87 31.14,-161.26 1.12,-63.4 19.93,-72.95 43.33,-49.82 23.41,23.12 -12.18,152.14 -12.18,152.14" /><path
           inkscape:connector-curvature="0"
           id="path46"
           style="fill:#64988e;fill-opacity:1;fill-rule:nonzero;stroke:none"
           d="m 1221.47,4220.05 -5.83,7.43 6.06,-7.28 c -0.08,-0.05 -0.16,-0.1 -0.23,-0.15" /><path
           inkscape:connector-curvature="0"
           id="path48"
           style="fill:#cbc8c4;fill-opacity:1;fill-rule:nonzero;stroke:none"
           d="m 1457.74,3918.64 -236.27,301.41 c 0.07,0.05 0.15,0.1 0.23,0.15 l 236.04,-283.82 55.6,180.01 -55.6,-197.75" /><path
           inkscape:connector-curvature="0"
           id="path50"
           style="fill:#f7f5f5;fill-opacity:1;fill-rule:nonzero;stroke:none"
           d="m 1309.7,4296.47 -94.06,-68.99 242.1,-291.1 55.6,180.01 -203.64,180.08" /><path
           inkscape:connector-curvature="0"
           id="path52"
           style="fill:#e3527c;fill-opacity:1;fill-rule:nonzero;stroke:none"
           d="m 1513.34,4600.48 c -34.86,0 -46.88,0 -111.19,0 0,0 61.29,30.26 83.54,30.41 15.22,0.11 16.57,-9.7 27.65,-9.7 v -20.71" /><path
           inkscape:connector-curvature="0"
           id="path54"
           style="fill:#af2751;fill-opacity:1;fill-rule:nonzero;stroke:none"
           d="m 1513.34,4556.48 c -52.89,0 -56.63,22 -90.46,35.27 -14.38,5.63 -20.73,8.73 -20.73,8.73 h 111.19 v -44" /><path
           inkscape:connector-curvature="0"
           id="path56"
           style="fill:#cd4c69;fill-opacity:1;fill-rule:nonzero;stroke:none"
           d="m 1175.68,4780.62 c 0,-10.18 -8.24,-18.42 -18.42,-18.42 -10.17,0 -18.42,8.24 -18.42,18.42 0,10.17 8.25,18.42 18.42,18.42 10.18,0 18.42,-8.25 18.42,-18.42" /><path
           inkscape:connector-curvature="0"
           id="path58"
           style="fill:#381514;fill-opacity:1;fill-rule:nonzero;stroke:none"
           d="m 1513.34,5555.29 c 365.79,0 460.24,-262.01 452.54,-559.38 -7.7,-297.33 37.48,-534.58 37.48,-534.58 l -490.02,-3.61 v 1097.57" /><path
           inkscape:connector-curvature="0"
           id="path60"
           style="fill:#dfdedb;fill-opacity:1;fill-rule:nonzero;stroke:none"
           d="m 1713.53,4299 c 106.77,-113.44 236.24,-165.77 420.19,-192.48 221.41,-32.14 250.45,-239.47 250.45,-297.09 0,-57.62 0,-271.15 0,-271.15 H 1513.34 V 4299 h 200.19" /><path
           inkscape:connector-curvature="0"
           id="path62"
           style="fill:#dba986;fill-opacity:1;fill-rule:nonzero;stroke:none"
           d="m 1513.34,4542.97 h 203.64 v -263.39 c 0,-39.12 -64.58,-163.19 -203.64,-163.19 v 426.58" /><path
           inkscape:connector-curvature="0"
           id="path64"
           style="fill:#dbbba2;fill-opacity:1;fill-rule:nonzero;stroke:none"
           d="m 1513.34,5371.79 c 300.29,0 344.77,-217.1 344.77,-484.91 0,-274.25 -230.87,-484.9 -344.77,-484.9 v 969.81" /><path
           inkscape:connector-curvature="0"
           id="path66"
           style="fill:#ebccaf;fill-opacity:1;fill-rule:nonzero;stroke:none"
           d="m 1864.86,4925.81 c 21.13,78.96 50.05,78.96 62.28,58.94 12.23,-20.02 -30.03,-97.87 -31.14,-161.26 -1.11,-63.4 -19.92,-72.95 -43.33,-49.82 -23.4,23.12 12.19,152.14 12.19,152.14" /><path
           inkscape:connector-curvature="0"
           id="path68"
           style="fill:#64988e;fill-opacity:1;fill-rule:nonzero;stroke:none"
           d="m 1805.21,4220.05 c -17.35,11.9 -34.06,24.84 -50.23,38.96 l 56.06,-31.53 -5.83,-7.43" /><path
           inkscape:connector-curvature="0"
           id="path70"
           style="fill:#bfbcb8;fill-opacity:1;fill-rule:nonzero;stroke:none"
           d="m 1568.94,3918.64 -55.6,197.75 c 139.06,0 203.64,124.07 203.64,163.19 v 0.8 l 38,-21.37 c 16.17,-14.12 32.88,-27.06 50.23,-38.96 l -236.27,-301.41" /><path
           inkscape:connector-curvature="0"
           id="path72"
           style="fill:#bc9271;fill-opacity:1;fill-rule:nonzero;stroke:none"
           d="m 1513.34,4116.39 200.19,165.93 3.45,-1.94 v -0.8 c 0,-39.12 -64.58,-163.19 -203.64,-163.19" /><path
           inkscape:connector-curvature="0"
           id="path74"
           style="fill:#f7f5f5;fill-opacity:1;fill-rule:nonzero;stroke:none"
           d="m 1716.98,4296.47 94.06,-68.99 -242.1,-291.1 -55.6,180.01 203.64,180.08" /><path
           inkscape:connector-curvature="0"
           id="path76"
           style="fill:#cd4c69;fill-opacity:1;fill-rule:nonzero;stroke:none"
           d="m 1513.34,4600.48 c 34.86,0 46.88,0 111.2,0 0,0 -61.29,30.26 -83.55,30.41 -15.22,0.11 -16.57,-9.7 -27.65,-9.7 v -20.71" /><path
           inkscape:connector-curvature="0"
           id="path78"
           style="fill:#a22545;fill-opacity:1;fill-rule:nonzero;stroke:none"
           d="m 1513.34,4556.48 c 52.9,0 56.63,22 90.46,35.27 14.38,5.63 20.74,8.73 20.74,8.73 h -111.2 v -44" /><path
           inkscape:connector-curvature="0"
           id="path80"
           style="fill:#cd4c69;fill-opacity:1;fill-rule:nonzero;stroke:none"
           d="m 1851,4780.62 c 0,-10.18 8.25,-18.42 18.42,-18.42 10.17,0 18.42,8.24 18.42,18.42 0,10.17 -8.25,18.42 -18.42,18.42 -10.17,0 -18.42,-8.25 -18.42,-18.42" /><path
           inkscape:connector-curvature="0"
           id="path82"
           style="fill:#534e50;fill-opacity:1;fill-rule:nonzero;stroke:none"
           d="m 1490.09,3851.15 c 0,-11.96 -9.7,-21.65 -21.65,-21.65 -11.96,0 -21.65,9.69 -21.65,21.65 0,11.95 9.69,21.65 21.65,21.65 11.95,0 21.65,-9.7 21.65,-21.65" /><path
           inkscape:connector-curvature="0"
           id="path84"
           style="fill:#534e50;fill-opacity:1;fill-rule:nonzero;stroke:none"
           d="m 1490.09,3722.4 c 0,-11.96 -9.7,-21.65 -21.65,-21.65 -11.96,0 -21.65,9.69 -21.65,21.65 0,11.95 9.69,21.64 21.65,21.64 11.95,0 21.65,-9.69 21.65,-21.64" /><path
           inkscape:connector-curvature="0"
           id="path86"
           style="fill:#534e50;fill-opacity:1;fill-rule:nonzero;stroke:none"
           d="m 1490.09,3593.64 c 0,-11.96 -9.7,-21.65 -21.65,-21.65 -11.96,0 -21.65,9.69 -21.65,21.65 0,11.96 9.69,21.65 21.65,21.65 11.95,0 21.65,-9.69 21.65,-21.65" /><path
           inkscape:connector-curvature="0"
           id="path88"
           style="fill:#631e1c;fill-opacity:1;fill-rule:nonzero;stroke:none"
           d="m 1513.34,5555.29 c -193.52,0 -322.2,-84.45 -359.11,-238 -53.32,-221.8 14.1,-432.13 21.26,-452.22 0,0 -13.94,74.32 27.36,165.78 -8.47,-57.46 -6.35,-100.51 -6.35,-100.51 0,0 179.47,47.73 316.84,134.71 v 490.24 0" /><path
           inkscape:connector-curvature="0"
           id="path90"
           style="fill:#4d1917;fill-opacity:1;fill-rule:nonzero;stroke:none"
           d="m 1662.18,5230.85 c 57.9,-26.09 106.61,-72.73 148.86,-148.98 57.01,-102.88 40.15,-216.8 40.15,-216.8 7.16,20.09 74.58,230.42 21.27,452.22 -36.91,153.55 -165.6,238 -359.12,238 v -490.24 c 71.24,45.1 131.17,100.75 148.84,165.8" /></g></g><path
       inkscape:connector-curvature="0"
       id="path92"
       style="fill:#76b2a4;fill-opacity:1;fill-rule:nonzero;stroke:none;stroke-width:0.1"
       d="m 266.679,222.318 c 0,-63.703 -51.642,-115.344 -115.345,-115.344 -63.7027,0 -115.3445,51.641 -115.3445,115.344 0,63.703 51.6418,115.345 115.3445,115.345 63.703,0 115.345,-51.642 115.345,-115.345" /><g
       id="g94"
       transform="scale(0.1)"><g
         clip-path="url(#clipPath100)"
         id="g96"><path
           inkscape:connector-curvature="0"
           id="path102"
           style="fill:#edbd9f;fill-opacity:1;fill-rule:nonzero;stroke:none"
           d="m 1513.34,2356.52 h -266.52 v -344.73 c 0,-51.2 84.52,-213.58 266.52,-213.58 v 558.31" /><path
           inkscape:connector-curvature="0"
           id="path104"
           style="fill:#f5d0b5;fill-opacity:1;fill-rule:nonzero;stroke:none"
           d="m 1513.34,3039.39 c -300.28,0 -344.77,-207.07 -344.77,-472.42 0,-293.61 175.65,-488.49 344.77,-488.49 v 960.91" /><path
           inkscape:connector-curvature="0"
           id="path106"
           style="fill:#f5d0b5;fill-opacity:1;fill-rule:nonzero;stroke:none"
           d="m 1172.61,2602.31 c -21.13,78.96 -50.04,78.96 -62.28,58.94 -12.23,-20.02 -3.01,-67.89 17.76,-144.34 16.63,-61.18 33.31,-89.87 56.71,-66.74 23.4,23.13 -12.19,152.14 -12.19,152.14" /><path
           inkscape:connector-curvature="0"
           id="path108"
           style="fill:#f2f1f0;fill-opacity:1;fill-rule:nonzero;stroke:none"
           d="m 1130.92,1950.58 -2.61,-0.41 v 0 c -29.85,-4.44 -471.38,-47.15 -516.22,-226.47 -27.531,-110.11 -83.414,-653.96 -83.414,-653.96 h 875.534 47.63 61.5 v 717.56 l -382.42,163.28" /><path
           inkscape:connector-curvature="0"
           id="path110"
           style="fill:#991e3a;fill-opacity:1;fill-rule:nonzero;stroke:none"
           d="m 1513.34,1589.4 h -81.3 l -17.46,-519.66 h 98.76 v 519.66" /><path
           inkscape:connector-curvature="0"
           id="path112"
           style="fill:#c62444;fill-opacity:1;fill-rule:nonzero;stroke:none"
           d="m 1513.34,1787.3 h -71.54 l -61.72,-108.65 51.96,-89.25 h 81.3 v 197.9" /><path
           inkscape:connector-curvature="0"
           id="path114"
           style="fill:#bebcba;fill-opacity:1;fill-rule:nonzero;stroke:none"
           d="m 1432.01,1588.76 -301.09,361.82 v 0 l 261.84,-293.72 39.28,-67.46 -0.03,-0.64" /><path
           inkscape:connector-curvature="0"
           id="path116"
           style="fill:#791a2f;fill-opacity:1;fill-rule:nonzero;stroke:none"
           d="m 1446.71,1571.1 -14.7,17.66 0.03,0.64 h 20.31 l -5.64,-18.3" /><path
           inkscape:connector-curvature="0"
           id="path118"
           style="fill:#9b1f37;fill-opacity:1;fill-rule:nonzero;stroke:none"
           d="m 1452.35,1589.4 h -20.31 l -39.28,67.46 53.95,-60.51 66.63,190.95 -60.99,-197.9" /><path
           inkscape:connector-curvature="0"
           id="path120"
           style="fill:#ffffff;fill-opacity:1;fill-rule:nonzero;stroke:none"
           d="m 1345.34,1950.58 -98.52,86.75 c -47.5,-26.7 -115.9,-86.75 -115.9,-86.75 l 315.79,-354.23 66.63,190.95 v 15.34 l -168,147.94" /><path
           inkscape:connector-curvature="0"
           id="path122"
           style="fill:#dcad95;fill-opacity:1;fill-rule:nonzero;stroke:none"
           d="m 1513.34,2356.52 h 266.53 v -344.73 c 0,-51.2 -84.53,-213.58 -266.53,-213.58 v 558.31" /><path
           inkscape:connector-curvature="0"
           id="path124"
           style="fill:#dfbba5;fill-opacity:1;fill-rule:nonzero;stroke:none"
           d="m 1513.34,3039.39 c 300.29,0 344.77,-207.07 344.77,-472.42 0,-293.61 -175.65,-488.49 -344.77,-488.49 v 960.91" /><path
           inkscape:connector-curvature="0"
           id="path126"
           style="fill:#dfbba5;fill-opacity:1;fill-rule:nonzero;stroke:none"
           d="m 1854.07,2602.31 c 21.13,78.96 50.05,78.96 62.28,58.94 12.23,-20.02 3.01,-67.89 -17.76,-144.34 -16.63,-61.18 -33.3,-89.87 -56.71,-66.74 -23.4,23.13 12.19,152.14 12.19,152.14" /><path
           inkscape:connector-curvature="0"
           id="path128"
           style="fill:#e2dcd4;fill-opacity:1;fill-rule:nonzero;stroke:none"
           d="m 1895.77,1950.58 2.6,-0.41 h 0.01 c 29.85,-4.44 471.37,-47.15 516.21,-226.47 27.53,-110.11 83.42,-653.96 83.42,-653.96 h -875.54 -47.63 -61.5 v 717.56 l 382.43,163.28" /><path
           inkscape:connector-curvature="0"
           id="path130"
           style="fill:#86152f;fill-opacity:1;fill-rule:nonzero;stroke:none"
           d="m 1513.34,1589.4 h 81.3 l 17.47,-519.66 h -98.77 v 519.66" /><path
           inkscape:connector-curvature="0"
           id="path132"
           style="fill:#af2144;fill-opacity:1;fill-rule:nonzero;stroke:none"
           d="m 1513.34,1787.3 h 71.54 l 61.73,-108.65 -51.97,-89.25 h -81.3 v 197.9" /><path
           inkscape:connector-curvature="0"
           id="path134"
           style="fill:#5c8c84;fill-opacity:1;fill-rule:nonzero;stroke:none"
           d="m 1513.34,1787.3 5.01,5.6 6.01,5.51 c 6.04,0.22 11.98,0.62 17.8,1.2 l -28.82,-12.31 m 178.06,76.02 c 59.83,51.19 88.47,118.66 88.47,148.47 v 25.54 c 47.5,-27.81 115.9,-86.75 115.9,-86.75 l -204.37,-87.26" /><path
           inkscape:connector-curvature="0"
           id="path136"
           style="fill:#ad8a77;fill-opacity:1;fill-rule:nonzero;stroke:none"
           d="m 1524.36,1798.41 161.99,148.56 93.52,90.36 v -25.54 c 0,-29.81 -28.64,-97.28 -88.47,-148.47 l -149.24,-63.71 c -5.82,-0.58 -11.76,-0.98 -17.8,-1.2" /><path
           inkscape:connector-curvature="0"
           id="path138"
           style="fill:#b0aca4;fill-opacity:1;fill-rule:nonzero;stroke:none"
           d="m 1594.67,1588.75 -0.03,0.65 51.97,89.25 -61.73,108.65 h -71.54 l 28.82,12.31 149.24,63.71 204.37,87.26 v 0 l -301.1,-361.83" /><path
           inkscape:connector-curvature="0"
           id="path140"
           style="fill:#6a1226;fill-opacity:1;fill-rule:nonzero;stroke:none"
           d="m 1579.97,1571.1 -5.64,18.3 h 20.31 l 0.03,-0.65 -14.7,-17.65" /><path
           inkscape:connector-curvature="0"
           id="path142"
           style="fill:#891c36;fill-opacity:1;fill-rule:nonzero;stroke:none"
           d="m 1594.64,1589.4 h -20.31 l -60.99,197.9 h 71.54 l 61.73,-108.65 -51.97,-89.25" /><path
           inkscape:connector-curvature="0"
           id="path144"
           style="fill:#ffffff;fill-opacity:1;fill-rule:nonzero;stroke:none"
           d="m 1681.35,1950.58 98.52,86.75 c 47.5,-26.7 115.9,-86.75 115.9,-86.75 l -315.8,-354.23 -66.63,190.95 v 15.34 l 168.01,147.94" /><path
           inkscape:connector-curvature="0"
           id="path146"
           style="fill:#534d42;fill-opacity:1;fill-rule:nonzero;stroke:none"
           d="m 1309.05,2770.25 c 0,0 101.79,15.02 204.29,53.68 v 32.41 c -90.88,-56.13 -204.29,-86.09 -204.29,-86.09" /><path
           inkscape:connector-curvature="0"
           id="path148"
           style="fill:#534d42;fill-opacity:1;fill-rule:nonzero;stroke:none"
           d="m 1248.28,2824.07 c 2.7,3.93 5.5,7.79 8.46,11.57 38.49,49.24 102.39,87.91 166.7,107.83 -49.82,-60.75 -132.74,-101.43 -175.16,-119.4 z m -94.05,169.72 c -53.32,-221.79 6.66,-424.42 13.81,-444.52 30.36,-6.07 3.72,155.27 75.88,268.13 50.15,9.31 174.42,36.38 269.42,90.07 v 324.33 c -193.52,0 -322.2,-84.46 -359.11,-238.01" /><path
           inkscape:connector-curvature="0"
           id="path150"
           style="fill:#534d42;fill-opacity:1;fill-rule:nonzero;stroke:none"
           d="m 1334.04,2801.37 c 0,0 93.73,18 179.3,65.36 v 40.3 c -71.88,-68.69 -179.3,-105.66 -179.3,-105.66" /><path
           inkscape:connector-curvature="0"
           id="path152"
           style="fill:#534d42;fill-opacity:1;fill-rule:nonzero;stroke:none"
           d="m 1513.34,2907.47 v -0.44 l 1.11,1.04 z" /><path
           inkscape:connector-curvature="0"
           id="path154"
           style="fill:#423c34;fill-opacity:1;fill-rule:nonzero;stroke:none"
           d="m 1685.67,2930.9 c 41.4,-16.94 74.4,-42.31 99.09,-78.12 111.01,-161 41.85,-309.91 73.88,-303.51 7.16,20.1 113.35,208.81 37.13,454.14 -22.06,70.99 -95.15,81.17 -95.15,81.17 11.72,83.44 -46.45,161.91 -46.45,161.91 0,0 9.16,-36.74 8.39,-76.14 -19.27,41.58 -54.77,87.37 -119.69,102.97 0,0 33.64,-31.18 59.81,-73.24 l -1.39,0.7 c -43.61,44.19 -88.28,80.24 -173.53,77.79 0,0 13.09,-19.53 59.97,-50.31 -23.76,2.42 -48.65,3.54 -74.39,3.54 v -324.33 l 1.11,0.6 -1.11,-1.04 v -40.3 c 32.1,17.76 63.06,39.63 87.47,66.26 -20.53,-29.32 -52.32,-54.94 -87.47,-76.65 v -32.41 c 66.25,24.99 132.78,59.83 172.33,106.97" /></g></g><path
       inkscape:connector-curvature="0"
       id="path156"
       style="fill:#76b2a4;fill-opacity:1;fill-rule:nonzero;stroke:none;stroke-width:0.1"
       d="m 514.552,469.172 c 0,-63.703 -51.642,-115.344 -115.345,-115.344 -63.703,0 -115.345,51.641 -115.345,115.344 0,63.703 51.642,115.345 115.345,115.345 63.703,0 115.345,-51.642 115.345,-115.345" /><g
       id="g158"
       transform="scale(0.1)"><g
         clip-path="url(#clipPath164)"
         id="g160"><path
           inkscape:connector-curvature="0"
           id="path166"
           style="fill:#3b2d2d;fill-opacity:1;fill-rule:nonzero;stroke:none"
           d="m 3992.07,5555.29 c -365.79,0 -460.24,-262.01 -452.54,-559.38 7.71,-297.33 -37.48,-915.21 -37.48,-915.21 l 490.02,-3.61 v 1478.2" /><path
           inkscape:connector-curvature="0"
           id="path168"
           style="fill:#ecebe9;fill-opacity:1;fill-rule:nonzero;stroke:none"
           d="m 3791.88,4299 c -106.77,-113.44 -236.24,-165.77 -420.18,-192.48 -221.41,-32.14 -250.46,-239.47 -250.46,-297.09 0,-57.62 0,-271.15 0,-271.15 h 870.83 V 4299 h -200.19" /><path
           inkscape:connector-curvature="0"
           id="path170"
           style="fill:#e9ba98;fill-opacity:1;fill-rule:nonzero;stroke:none"
           d="m 3992.07,4542.97 h -203.64 v -263.39 c 0,-39.12 64.58,-163.19 203.64,-163.19 v 426.58" /><path
           inkscape:connector-curvature="0"
           id="path172"
           style="fill:#ebccaf;fill-opacity:1;fill-rule:nonzero;stroke:none"
           d="m 3992.07,5371.79 c -300.29,0 -344.77,-217.1 -344.77,-484.91 0,-274.25 230.87,-484.9 344.77,-484.9 v 969.81" /><path
           inkscape:connector-curvature="0"
           id="path174"
           style="fill:#ebccaf;fill-opacity:1;fill-rule:nonzero;stroke:none"
           d="m 3640.55,4925.81 c -21.13,78.96 -50.04,78.96 -62.28,58.94 -12.23,-20.02 30.03,-97.87 31.14,-161.26 1.11,-63.4 19.93,-72.95 43.33,-49.82 23.4,23.12 -12.19,152.14 -12.19,152.14" /><path
           inkscape:connector-curvature="0"
           id="path176"
           style="fill:#332727;fill-opacity:1;fill-rule:nonzero;stroke:none"
           d="m 3700.2,4220.05 -5.83,7.43 6.05,-7.28 c -0.07,-0.05 -0.15,-0.1 -0.22,-0.15" /><path
           inkscape:connector-curvature="0"
           id="path178"
           style="fill:#cbc8c4;fill-opacity:1;fill-rule:nonzero;stroke:none"
           d="m 3936.47,3918.64 -236.27,301.41 c 0.07,0.05 0.15,0.1 0.22,0.15 l 236.05,-283.82 55.6,180.01 -55.6,-197.75" /><path
           inkscape:connector-curvature="0"
           id="path180"
           style="fill:#f7f5f5;fill-opacity:1;fill-rule:nonzero;stroke:none"
           d="m 3788.43,4296.47 -94.06,-68.99 242.1,-291.1 55.6,180.01 -203.64,180.08" /><path
           inkscape:connector-curvature="0"
           id="path182"
           style="fill:#f57d8f;fill-opacity:1;fill-rule:nonzero;stroke:none"
           d="m 3992.07,4600.48 c -34.86,0 -22.53,0 -86.84,0 0,0 38.62,36.57 60.88,36.73 15.21,0.1 14.88,-4.06 25.96,-4.06 v -32.67" /><path
           inkscape:connector-curvature="0"
           id="path184"
           style="fill:#ef3f51;fill-opacity:1;fill-rule:nonzero;stroke:none"
           d="m 3992.07,4556.48 c -52.89,0 -36.15,11.21 -69.98,24.48 -14.38,5.63 -16.86,19.52 -16.86,19.52 h 86.84 v -44" /><path
           inkscape:connector-curvature="0"
           id="path186"
           style="fill:#3b2d2d;fill-opacity:1;fill-rule:nonzero;stroke:none"
           d="m 3992.07,5555.29 c -193.52,0 -322.2,-84.45 -359.11,-238 -53.32,-221.8 14.1,-321.75 21.26,-341.85 0,0 337.85,156.42 337.85,396.35 v 183.5" /><path
           inkscape:connector-curvature="0"
           id="path188"
           style="fill:#835f4d;fill-opacity:1;fill-rule:nonzero;stroke:none"
           d="m 3591.7,4162.27 c -64.09,-26.07 -136.37,-43.61 -220.01,-55.75 -221.4,-32.14 -250.45,-239.47 -250.45,-297.09 0,-57.62 0,-271.15 0,-271.15 h 573.92 l -103.46,623.99" /><path
           inkscape:connector-curvature="0"
           id="path190"
           style="fill:#d18664;fill-opacity:1;fill-rule:nonzero;stroke:none"
           d="m 3420.54,4114.57 c -7.05,-1.28 -14.11,-2.56 -21.32,-3.75 l 86.15,-572.54 h 21.89 l -86.72,576.29" /><path
           inkscape:connector-curvature="0"
           id="path192"
           style="fill:#d18664;fill-opacity:1;fill-rule:nonzero;stroke:none"
           d="m 3496.07,4131.06 c -6.94,-1.8 -13.99,-3.52 -21.11,-5.19 l 88.42,-587.59 h 21.89 l -89.2,592.78" /><path
           inkscape:connector-curvature="0"
           id="path194"
           style="fill:#291f1f;fill-opacity:1;fill-rule:nonzero;stroke:none"
           d="m 3992.07,5555.29 c 365.79,0 460.24,-262.01 452.54,-559.38 -7.71,-297.33 37.48,-915.21 37.48,-915.21 l -490.02,-3.61 v 1478.2" /><path
           inkscape:connector-curvature="0"
           id="path196"
           style="fill:#dfdedb;fill-opacity:1;fill-rule:nonzero;stroke:none"
           d="m 4192.26,4299 c 106.77,-113.44 236.24,-165.77 420.19,-192.48 221.4,-32.14 250.45,-239.47 250.45,-297.09 0,-57.62 0,-271.15 0,-271.15 H 3992.07 V 4299 h 200.19" /><path
           inkscape:connector-curvature="0"
           id="path198"
           style="fill:#dba986;fill-opacity:1;fill-rule:nonzero;stroke:none"
           d="m 3992.07,4542.97 h 203.64 v -263.39 c 0,-39.12 -64.58,-163.19 -203.64,-163.19 v 426.58" /><path
           inkscape:connector-curvature="0"
           id="path200"
           style="fill:#dbbba2;fill-opacity:1;fill-rule:nonzero;stroke:none"
           d="m 3992.07,5371.79 c 300.29,0 344.77,-217.1 344.77,-484.91 0,-274.25 -230.87,-484.9 -344.77,-484.9 v 969.81" /><path
           inkscape:connector-curvature="0"
           id="path202"
           style="fill:#ebccaf;fill-opacity:1;fill-rule:nonzero;stroke:none"
           d="m 4343.59,4925.81 c 21.13,78.96 50.04,78.96 62.28,58.94 12.23,-20.02 -30.03,-97.87 -31.14,-161.26 -1.12,-63.4 -19.93,-72.95 -43.33,-49.82 -23.4,23.12 12.19,152.14 12.19,152.14" /><path
           inkscape:connector-curvature="0"
           id="path204"
           style="fill:#241c1b;fill-opacity:1;fill-rule:nonzero;stroke:none"
           d="m 4283.94,4220.05 c -17.36,11.9 -34.06,24.84 -50.24,38.96 l 56.07,-31.53 -5.83,-7.43" /><path
           inkscape:connector-curvature="0"
           id="path206"
           style="fill:#bfbcb8;fill-opacity:1;fill-rule:nonzero;stroke:none"
           d="m 4047.67,3918.64 -55.6,197.75 c 139.06,0 203.64,124.07 203.64,163.19 v 0.8 l 37.99,-21.37 c 16.18,-14.12 32.88,-27.06 50.24,-38.96 l -236.27,-301.41" /><path
           inkscape:connector-curvature="0"
           id="path208"
           style="fill:#bc9271;fill-opacity:1;fill-rule:nonzero;stroke:none"
           d="m 3992.07,4116.39 200.19,165.93 3.45,-1.94 v -0.8 c 0,-39.12 -64.58,-163.19 -203.64,-163.19" /><path
           inkscape:connector-curvature="0"
           id="path210"
           style="fill:#f7f5f5;fill-opacity:1;fill-rule:nonzero;stroke:none"
           d="m 4195.71,4296.47 94.06,-68.99 -242.1,-291.1 -55.6,180.01 203.64,180.08" /><path
           inkscape:connector-curvature="0"
           id="path212"
           style="fill:#f35c71;fill-opacity:1;fill-rule:nonzero;stroke:none"
           d="m 3992.07,4600.48 c 34.86,0 22.53,0 86.84,0 0,0 -38.62,36.57 -60.88,36.73 -15.21,0.1 -14.88,-4.06 -25.96,-4.06 v -32.67" /><path
           inkscape:connector-curvature="0"
           id="path214"
           style="fill:#e33d4e;fill-opacity:1;fill-rule:nonzero;stroke:none"
           d="m 3992.07,4556.48 c 52.89,0 36.15,11.21 69.98,24.48 14.38,5.63 16.86,19.52 16.86,19.52 h -86.84 v -44" /><path
           inkscape:connector-curvature="0"
           id="path216"
           style="fill:#291f1f;fill-opacity:1;fill-rule:nonzero;stroke:none"
           d="m 3992.07,5555.29 c 193.52,0 322.2,-84.45 359.11,-238 53.32,-221.8 -14.1,-321.75 -21.26,-341.85 0,0 -337.85,156.42 -337.85,396.35 v 183.5 0" /><path
           inkscape:connector-curvature="0"
           id="path218"
           style="fill:#765041;fill-opacity:1;fill-rule:nonzero;stroke:none"
           d="m 4392.43,4162.27 c 64.1,-26.07 136.38,-43.61 220.02,-55.75 221.4,-32.14 250.45,-239.47 250.45,-297.09 0,-57.62 0,-271.15 0,-271.15 h -573.92 l 103.45,623.99" /><path
           inkscape:connector-curvature="0"
           id="path220"
           style="fill:#d18664;fill-opacity:1;fill-rule:nonzero;stroke:none"
           d="m 4563.6,4114.57 c 7.05,-1.28 14.11,-2.56 21.32,-3.75 l -86.15,-572.54 h -21.89 l 86.72,576.29" /><path
           inkscape:connector-curvature="0"
           id="path222"
           style="fill:#d18664;fill-opacity:1;fill-rule:nonzero;stroke:none"
           d="m 4488.07,4131.06 c 6.94,-1.8 13.99,-3.52 21.11,-5.19 l -88.42,-587.59 h -21.89 l 89.2,592.78" /><path
           inkscape:connector-curvature="0"
           id="path224"
           style="fill:#6b3320;fill-opacity:1;fill-rule:nonzero;stroke:none"
           d="m 3944.8,4899.05 c -5.46,-49.14 -48.64,-132.02 -122.59,-135.5 -73.95,-3.47 -122.59,43.68 -138.97,84.87 -16.38,41.2 -23.82,105.72 27.79,131.03 51.62,25.31 127.55,25.31 182.15,4.47 54.59,-20.85 55.26,-52.08 51.62,-84.87 z m -21.97,94.17 c -43.92,25.69 -110.92,35.37 -180.9,30.53 -69.98,-4.84 -118.74,-32.76 -120.98,-34.25 -2.23,-1.49 -1.86,-17.49 -1.86,-27.55 0,-10.05 1.12,-18.61 4.47,-21.96 3.35,-3.35 21.21,-9.3 27.54,-36.85 6.33,-27.54 21.59,-86.73 64.4,-121.35 42.81,-34.62 90.82,-42.06 149.27,-21.96 58.44,20.1 79.28,69.61 83.75,78.17 4.46,8.56 17.12,50.25 22.7,61.05 5.59,10.79 12.1,16.19 20.85,16.19 v 54.53 c -17.5,0 -25.31,-2.23 -69.24,23.45" /><path
           inkscape:connector-curvature="0"
           id="path226"
           style="fill:#50251a;fill-opacity:1;fill-rule:nonzero;stroke:none"
           d="m 4090.96,4983.92 c 54.59,20.84 130.53,20.84 182.15,-4.47 51.61,-25.31 44.17,-89.83 27.79,-131.03 -16.38,-41.19 -65.02,-88.34 -138.97,-84.87 -73.95,3.48 -117.13,86.36 -122.59,135.5 -3.64,32.79 -2.97,64.02 51.62,84.87 z m -78.05,-84.87 c 5.59,-10.8 18.24,-52.49 22.71,-61.05 4.47,-8.56 25.31,-58.07 83.75,-78.17 58.44,-20.1 106.46,-12.66 149.27,21.96 42.81,34.62 58.07,93.81 64.4,121.35 6.32,27.55 24.19,33.5 27.54,36.85 3.35,3.35 4.47,11.91 4.47,21.96 0,10.06 0.37,26.06 -1.86,27.55 -2.24,1.49 -51,29.41 -120.98,34.25 -69.98,4.84 -136.98,-4.84 -180.91,-30.53 -43.92,-25.68 -51.74,-23.45 -69.23,-23.45 v -54.53 c 8.75,0 15.26,-5.4 20.84,-16.19" /></g></g><path
       inkscape:connector-curvature="0"
       id="path228"
       style="fill:#76b2a4;fill-opacity:1;fill-rule:nonzero;stroke:none;stroke-width:0.1"
       d="m 514.552,222.318 c 0,-63.703 -51.642,-115.344 -115.345,-115.344 -63.703,0 -115.345,51.641 -115.345,115.344 0,63.703 51.642,115.345 115.345,115.345 63.703,0 115.345,-51.642 115.345,-115.345" /><g
       id="g230"
       transform="scale(0.1)"><g
         clip-path="url(#clipPath236)"
         id="g232"><path
           inkscape:connector-curvature="0"
           id="path238"
           style="fill:#edbd9f;fill-opacity:1;fill-rule:nonzero;stroke:none"
           d="m 3992.07,2356.52 h -266.53 v -344.73 c 0,-51.2 84.53,-213.58 266.53,-213.58 v 558.31" /><path
           inkscape:connector-curvature="0"
           id="path240"
           style="fill:#f5d0b5;fill-opacity:1;fill-rule:nonzero;stroke:none"
           d="m 3992.07,3039.39 c -300.29,0 -344.77,-207.07 -344.77,-472.42 0,-293.61 175.65,-488.49 344.77,-488.49 v 960.91" /><path
           inkscape:connector-curvature="0"
           id="path242"
           style="fill:#f5d0b5;fill-opacity:1;fill-rule:nonzero;stroke:none"
           d="m 3651.34,2602.31 c -21.13,78.96 -50.05,78.96 -62.28,58.94 -12.23,-20.02 -3.01,-67.89 17.76,-144.34 16.63,-61.18 33.3,-89.87 56.71,-66.74 23.4,23.13 -12.19,152.14 -12.19,152.14" /><path
           inkscape:connector-curvature="0"
           id="path244"
           style="fill:#f2f1f0;fill-opacity:1;fill-rule:nonzero;stroke:none"
           d="m 3609.65,1950.58 -2.61,-0.41 h -0.01 c -29.84,-4.44 -471.37,-47.15 -516.21,-226.47 -27.53,-110.11 -83.41,-653.96 -83.41,-653.96 h 875.53 47.63 61.5 v 717.56 l -382.42,163.28" /><path
           inkscape:connector-curvature="0"
           id="path246"
           style="fill:#2a6867;fill-opacity:1;fill-rule:nonzero;stroke:none"
           d="m 3992.07,1589.4 h -81.31 l -17.45,-519.66 h 98.76 v 519.66" /><path
           inkscape:connector-curvature="0"
           id="path248"
           style="fill:#347f7a;fill-opacity:1;fill-rule:nonzero;stroke:none"
           d="m 3992.07,1787.3 h -71.54 l -61.72,-108.65 51.95,-89.25 h 81.31 v 197.9" /><path
           inkscape:connector-curvature="0"
           id="path250"
           style="fill:#bebcba;fill-opacity:1;fill-rule:nonzero;stroke:none"
           d="m 3910.74,1588.76 -301.09,361.82 261.84,-293.71 39.27,-67.47 -0.02,-0.64" /><path
           inkscape:connector-curvature="0"
           id="path252"
           style="fill:#235251;fill-opacity:1;fill-rule:nonzero;stroke:none"
           d="m 3925.44,1571.1 -14.7,17.66 0.02,0.64 h 20.32 l -5.64,-18.3" /><path
           inkscape:connector-curvature="0"
           id="path254"
           style="fill:#2a6360;fill-opacity:1;fill-rule:nonzero;stroke:none"
           d="m 3931.08,1589.4 h -20.32 l -39.27,67.47 53.95,-60.52 66.63,190.95 -60.99,-197.9" /><path
           inkscape:connector-curvature="0"
           id="path256"
           style="fill:#ffffff;fill-opacity:1;fill-rule:nonzero;stroke:none"
           d="m 3824.06,1950.58 -98.52,86.75 c -47.5,-26.7 -115.89,-86.75 -115.89,-86.75 l 315.79,-354.23 66.63,190.95 v 15.34 l -168.01,147.94" /><path
           inkscape:connector-curvature="0"
           id="path258"
           style="fill:#dcad95;fill-opacity:1;fill-rule:nonzero;stroke:none"
           d="m 3992.07,2356.52 h 266.53 v -344.73 c 0,-51.2 -84.53,-213.58 -266.53,-213.58 v 558.31" /><path
           inkscape:connector-curvature="0"
           id="path260"
           style="fill:#dfbba5;fill-opacity:1;fill-rule:nonzero;stroke:none"
           d="m 3992.07,3039.39 c 300.29,0 344.77,-207.07 344.77,-472.42 0,-293.61 -175.65,-488.49 -344.77,-488.49 v 960.91" /><path
           inkscape:connector-curvature="0"
           id="path262"
           style="fill:#dfbba5;fill-opacity:1;fill-rule:nonzero;stroke:none"
           d="m 4332.8,2602.31 c 21.13,78.96 50.04,78.96 62.28,58.94 12.23,-20.02 3.01,-67.89 -17.76,-144.34 -16.63,-61.18 -33.31,-89.87 -56.71,-66.74 -23.4,23.13 12.19,152.14 12.19,152.14" /><path
           inkscape:connector-curvature="0"
           id="path264"
           style="fill:#e2dcd4;fill-opacity:1;fill-rule:nonzero;stroke:none"
           d="m 4374.5,1950.58 2.6,-0.41 h 0.01 c 29.84,-4.44 471.37,-47.15 516.21,-226.47 27.53,-110.11 83.41,-653.96 83.41,-653.96 h -875.53 -47.63 -61.5 v 717.56 l 382.43,163.28" /><path
           inkscape:connector-curvature="0"
           id="path266"
           style="fill:#255759;fill-opacity:1;fill-rule:nonzero;stroke:none"
           d="m 3992.07,1589.4 h 81.31 l 17.45,-519.66 h -98.76 v 519.66" /><path
           inkscape:connector-curvature="0"
           id="path268"
           style="fill:#2a6867;fill-opacity:1;fill-rule:nonzero;stroke:none"
           d="m 3992.07,1787.3 h 71.54 l 61.72,-108.65 -51.95,-89.25 h -81.31 v 197.9" /><path
           inkscape:connector-curvature="0"
           id="path270"
           style="fill:#5c8c84;fill-opacity:1;fill-rule:nonzero;stroke:none"
           d="m 3992.07,1787.3 v 0 l 5.01,5.6 6.01,5.51 c 6.04,0.22 11.98,0.62 17.79,1.2 l -28.81,-12.31" /><path
           inkscape:connector-curvature="0"
           id="path272"
           style="fill:#bebcba;fill-opacity:1;fill-rule:nonzero;stroke:none"
           d="m 3992.07,1787.3 v 0 0 0" /><path
           inkscape:connector-curvature="0"
           id="path274"
           style="fill:#5c8c84;fill-opacity:1;fill-rule:nonzero;stroke:none"
           d="m 4170.12,1863.32 c 59.84,51.19 88.48,118.66 88.48,148.47 v 25.54 c 47.49,-27.81 115.9,-86.75 115.9,-86.75 l -204.38,-87.26" /><path
           inkscape:connector-curvature="0"
           id="path276"
           style="fill:#ad8a77;fill-opacity:1;fill-rule:nonzero;stroke:none"
           d="m 4003.09,1798.41 161.99,148.56 93.52,90.36 v -25.54 c 0,-29.81 -28.64,-97.28 -88.48,-148.47 l -149.24,-63.71 c -5.81,-0.58 -11.75,-0.98 -17.79,-1.2" /><path
           inkscape:connector-curvature="0"
           id="path278"
           style="fill:#b0aca4;fill-opacity:1;fill-rule:nonzero;stroke:none"
           d="m 4073.4,1588.76 -0.02,0.64 51.95,89.25 -61.72,108.65 h -71.54 l 28.81,12.31 149.24,63.71 204.38,87.26 v 0 l -301.1,-361.82" /><path
           inkscape:connector-curvature="0"
           id="path280"
           style="fill:#1f4446;fill-opacity:1;fill-rule:nonzero;stroke:none"
           d="m 4058.7,1571.1 -5.64,18.3 h 20.32 l 0.02,-0.64 -14.7,-17.66" /><path
           inkscape:connector-curvature="0"
           id="path282"
           style="fill:#235251;fill-opacity:1;fill-rule:nonzero;stroke:none"
           d="m 4073.38,1589.4 h -20.32 l -60.99,197.9 h 71.54 l 61.72,-108.65 -51.95,-89.25" /><path
           inkscape:connector-curvature="0"
           id="path284"
           style="fill:#ffffff;fill-opacity:1;fill-rule:nonzero;stroke:none"
           d="m 4160.08,1950.58 98.52,86.75 c 47.5,-26.7 115.89,-86.75 115.89,-86.75 l -315.79,-354.23 -66.63,190.95 v 15.34 l 168.01,147.94" /><path
           inkscape:connector-curvature="0"
           id="path286"
           style="fill:#534d42;fill-opacity:1;fill-rule:nonzero;stroke:none"
           d="m 3992.07,2913.88 c -135.68,0 -212.54,35.43 -212.54,35.43 0,0 -4.06,-22.52 -75.89,-136.01 -71.84,-113.5 -50.19,-334.48 -50.19,-334.48 0,0 -75.65,132.12 -55.78,361.68 26.4,304.87 243.25,358.08 394.4,358.08 v -284.7" /><path
           inkscape:connector-curvature="0"
           id="path288"
           style="fill:#3e3730;fill-opacity:1;fill-rule:nonzero;stroke:none"
           d="m 3992.07,2913.88 c 135.68,0 212.55,35.43 212.55,35.43 0,0 4.05,-22.52 75.88,-136.01 71.84,-113.5 50.19,-334.48 50.19,-334.48 0,0 75.66,132.12 55.78,361.68 -26.4,304.87 -243.25,358.08 -394.4,358.08 v -284.7" /><path
           inkscape:connector-curvature="0"
           id="path290"
           style="fill:#29231f;fill-opacity:1;fill-rule:nonzero;stroke:none"
           d="m 3550,1942.67 c -127.74,-18.38 -422.95,-74.06 -459.18,-218.98 -27.53,-110.1 -83.41,-653.95 -83.41,-653.95 h 834.97 L 3550,1942.67" /><path
           inkscape:connector-curvature="0"
           id="path292"
           style="fill:#3d3630;fill-opacity:1;fill-rule:nonzero;stroke:none"
           d="m 3506.48,1935.88 -37.03,-389.69 140.2,-39.98 -93.3,-273.9 187.61,-162.57 h 138.42 l -292.38,872.93 -43.52,-6.79" /><path
           inkscape:connector-curvature="0"
           id="path294"
           style="fill:#29231f;fill-opacity:1;fill-rule:nonzero;stroke:none"
           d="m 4434.14,1942.67 c 127.74,-18.38 422.94,-74.06 459.18,-218.98 27.53,-110.1 83.41,-653.95 83.41,-653.95 h -834.97 l 292.38,872.93" /><path
           inkscape:connector-curvature="0"
           id="path296"
           style="fill:#3d3630;fill-opacity:1;fill-rule:nonzero;stroke:none"
           d="m 4477.66,1935.88 37.03,-389.69 -140.2,-39.98 93.3,-273.9 -187.61,-162.57 h -138.42 l 292.38,872.93 43.52,-6.79" /></g></g><path
       inkscape:connector-curvature="0"
       id="path298"
       style="fill:#76b2a4;fill-opacity:1;fill-rule:nonzero;stroke:none;stroke-width:0.1"
       d="m 762.425,469.172 c 0,-63.703 -51.642,-115.344 -115.345,-115.344 -63.703,0 -115.345,51.641 -115.345,115.344 0,63.703 51.642,115.345 115.345,115.345 63.703,0 115.345,-51.642 115.345,-115.345" /><g
       id="g300"
       transform="scale(0.1)"><g
         clip-path="url(#clipPath306)"
         id="g302"><path
           inkscape:connector-curvature="0"
           id="path308"
           style="fill:#322728;fill-opacity:1;fill-rule:nonzero;stroke:none"
           d="m 6470.8,5765.56 c -255.85,0 -309.35,-118.35 -275.83,-294.1 33.51,-175.74 275.83,-53.93 275.83,-53.93 v 348.03" /><path
           inkscape:connector-curvature="0"
           id="path310"
           style="fill:#f7f7f7;fill-opacity:1;fill-rule:nonzero;stroke:none"
           d="m 6270.61,4299 c -106.77,-113.44 -236.24,-165.77 -420.19,-192.48 -221.41,-32.14 -250.45,-239.47 -250.45,-297.09 0,-57.62 0,-271.15 0,-271.15 H 6470.8 V 4299 h -200.19" /><path
           inkscape:connector-curvature="0"
           id="path312"
           style="fill:#e9ba98;fill-opacity:1;fill-rule:nonzero;stroke:none"
           d="m 6470.8,4542.97 h -203.64 v -263.39 c 0,-39.12 64.58,-163.19 203.64,-163.19 v 426.58" /><path
           inkscape:connector-curvature="0"
           id="path314"
           style="fill:#ebccaf;fill-opacity:1;fill-rule:nonzero;stroke:none"
           d="m 6470.8,5371.79 c -300.29,0 -344.77,-217.1 -344.77,-484.91 0,-274.25 230.87,-484.9 344.77,-484.9 v 969.81" /><path
           inkscape:connector-curvature="0"
           id="path316"
           style="fill:#ebccaf;fill-opacity:1;fill-rule:nonzero;stroke:none"
           d="m 6119.28,4925.81 c -21.13,78.96 -50.04,78.96 -62.28,58.94 -12.23,-20.02 30.03,-97.87 31.14,-161.26 1.11,-63.4 19.93,-72.95 43.33,-49.82 23.4,23.12 -12.19,152.14 -12.19,152.14" /><path
           inkscape:connector-curvature="0"
           id="path318"
           style="fill:#64988e;fill-opacity:1;fill-rule:nonzero;stroke:none"
           d="m 6178.93,4220.05 -5.83,7.43 6.05,-7.28 c -0.07,-0.05 -0.15,-0.1 -0.22,-0.15" /><path
           inkscape:connector-curvature="0"
           id="path320"
           style="fill:#d4d4d1;fill-opacity:1;fill-rule:nonzero;stroke:none"
           d="m 6415.2,3918.64 -236.27,301.41 c 0.07,0.05 0.15,0.1 0.22,0.15 l 236.05,-283.82 55.6,180.01 -55.6,-197.75" /><path
           inkscape:connector-curvature="0"
           id="path322"
           style="fill:#f7f5f5;fill-opacity:1;fill-rule:nonzero;stroke:none"
           d="m 6267.16,4296.47 -94.06,-68.99 242.1,-291.1 55.6,180.01 -203.64,180.08" /><path
           inkscape:connector-curvature="0"
           id="path324"
           style="fill:#e34e61;fill-opacity:1;fill-rule:nonzero;stroke:none"
           d="m 6470.8,4600.48 c -34.86,0 -57.93,0 -122.24,0 0,0 74.02,36.73 96.28,36.73 9.92,0 21.44,-12.86 25.96,-12.86 v -23.87" /><path
           inkscape:connector-curvature="0"
           id="path326"
           style="fill:#ce3846;fill-opacity:1;fill-rule:nonzero;stroke:none"
           d="m 6470.8,4556.48 c -28.89,0 -55.94,12.32 -90.79,25.93 -14.39,5.63 -31.45,18.07 -31.45,18.07 h 122.24 v -44" /><path
           inkscape:connector-curvature="0"
           id="path328"
           style="fill:#483839;fill-opacity:1;fill-rule:nonzero;stroke:none"
           d="m 6470.8,5555.29 c -193.52,0 -322.2,-97.35 -359.12,-274.35 -53.31,-255.67 14.11,-370.89 21.27,-394.06 0,0 22.47,310.44 337.85,407.86 v 260.55" /><path
           inkscape:connector-curvature="0"
           id="path330"
           style="fill:#271e1b;fill-opacity:1;fill-rule:nonzero;stroke:none"
           d="m 6070.43,4162.27 c -64.09,-26.07 -136.37,-43.61 -220.01,-55.75 -221.41,-32.14 -250.45,-239.47 -250.45,-297.09 0,-57.62 0,-271.15 0,-271.15 h 870.83 l -400.37,623.99" /><path
           inkscape:connector-curvature="0"
           id="path332"
           style="fill:#291f1f;fill-opacity:1;fill-rule:nonzero;stroke:none"
           d="m 6423.52,4899.05 c -5.45,-49.14 -48.63,-132.02 -122.58,-135.5 -73.96,-3.47 -122.59,43.68 -138.97,84.87 -16.38,41.2 -23.82,105.72 27.79,131.03 51.62,25.31 127.55,25.31 182.15,4.47 54.59,-20.85 55.26,-52.08 51.61,-84.87 z m -21.96,94.17 c -43.92,25.69 -110.92,35.37 -180.9,30.53 -69.98,-4.84 -118.74,-32.76 -120.98,-34.25 -2.23,-1.49 -1.86,-17.49 -1.86,-27.55 0,-10.05 1.12,-18.61 4.47,-21.96 3.35,-3.35 21.21,-9.3 27.54,-36.85 6.33,-27.54 21.59,-86.73 64.4,-121.35 42.81,-34.62 90.82,-42.06 149.26,-21.96 58.44,20.1 79.29,69.61 83.76,78.17 4.46,8.56 17.12,50.25 22.7,61.05 5.59,10.79 12.1,16.19 20.85,16.19 v 54.53 c -17.5,0 -25.31,-2.23 -69.24,23.45" /><path
           inkscape:connector-curvature="0"
           id="path334"
           style="fill:#271e1d;fill-opacity:1;fill-rule:nonzero;stroke:none"
           d="m 6470.8,5765.56 c 255.84,0 309.35,-118.35 275.83,-294.1 -33.52,-175.74 -275.83,-53.93 -275.83,-53.93 v 348.03" /><path
           inkscape:connector-curvature="0"
           id="path336"
           style="fill:#ecebe9;fill-opacity:1;fill-rule:nonzero;stroke:none"
           d="m 6670.99,4299 c 106.77,-113.44 236.24,-165.77 420.18,-192.48 221.41,-32.14 250.46,-239.47 250.46,-297.09 0,-57.62 0,-271.15 0,-271.15 H 6470.8 V 4299 h 200.19" /><path
           inkscape:connector-curvature="0"
           id="path338"
           style="fill:#dba986;fill-opacity:1;fill-rule:nonzero;stroke:none"
           d="m 6470.8,4542.97 h 203.64 v -263.39 c 0,-39.12 -64.58,-163.19 -203.64,-163.19 v 426.58" /><path
           inkscape:connector-curvature="0"
           id="path340"
           style="fill:#dbbba2;fill-opacity:1;fill-rule:nonzero;stroke:none"
           d="m 6470.8,5371.79 c 300.29,0 344.77,-217.1 344.77,-484.91 0,-274.25 -230.87,-484.9 -344.77,-484.9 v 969.81" /><path
           inkscape:connector-curvature="0"
           id="path342"
           style="fill:#ebccaf;fill-opacity:1;fill-rule:nonzero;stroke:none"
           d="m 6822.32,4925.81 c 21.13,78.96 50.04,78.96 62.28,58.94 12.23,-20.02 -30.03,-97.87 -31.14,-161.26 -1.12,-63.4 -19.93,-72.95 -43.33,-49.82 -23.4,23.12 12.19,152.14 12.19,152.14" /><path
           inkscape:connector-curvature="0"
           id="path344"
           style="fill:#64988e;fill-opacity:1;fill-rule:nonzero;stroke:none"
           d="m 6762.67,4220.05 c -17.36,11.9 -34.07,24.84 -50.24,38.96 l 56.07,-31.53 -5.83,-7.43" /><path
           inkscape:connector-curvature="0"
           id="path346"
           style="fill:#cbc8c4;fill-opacity:1;fill-rule:nonzero;stroke:none"
           d="m 6526.4,3918.64 -55.6,197.75 c 139.06,0 203.64,124.07 203.64,163.19 v 0.8 l 37.99,-21.37 c 16.17,-14.12 32.88,-27.06 50.24,-38.96 L 6526.4,3918.64" /><path
           inkscape:connector-curvature="0"
           id="path348"
           style="fill:#bc9271;fill-opacity:1;fill-rule:nonzero;stroke:none"
           d="m 6470.8,4116.39 200.19,165.93 3.45,-1.94 v -0.8 c 0,-39.12 -64.58,-163.19 -203.64,-163.19" /><path
           inkscape:connector-curvature="0"
           id="path350"
           style="fill:#f7f5f5;fill-opacity:1;fill-rule:nonzero;stroke:none"
           d="m 6674.44,4296.47 94.06,-68.99 -242.1,-291.1 -55.6,180.01 203.64,180.08" /><path
           inkscape:connector-curvature="0"
           id="path352"
           style="fill:#d33744;fill-opacity:1;fill-rule:nonzero;stroke:none"
           d="m 6470.8,4600.48 c 34.86,0 57.93,0 122.24,0 0,0 -74.02,36.73 -96.28,36.73 -9.92,0 -21.44,-12.86 -25.96,-12.86 v -23.87" /><path
           inkscape:connector-curvature="0"
           id="path354"
           style="fill:#af242c;fill-opacity:1;fill-rule:nonzero;stroke:none"
           d="m 6470.8,4556.48 c 28.89,0 55.94,12.32 90.79,25.93 14.38,5.63 31.45,18.07 31.45,18.07 H 6470.8 v -44" /><path
           inkscape:connector-curvature="0"
           id="path356"
           style="fill:#3b2d2d;fill-opacity:1;fill-rule:nonzero;stroke:none"
           d="m 6470.8,5555.29 c 193.52,0 322.2,-97.35 359.11,-274.35 53.32,-255.67 -14.1,-370.89 -21.26,-394.06 0,0 -22.48,310.44 -337.85,407.86 v 260.55 0" /><path
           inkscape:connector-curvature="0"
           id="path358"
           style="fill:#171412;fill-opacity:1;fill-rule:nonzero;stroke:none"
           d="m 6871.16,4162.27 c 64.1,-26.07 136.38,-43.61 220.01,-55.75 221.41,-32.14 250.46,-239.47 250.46,-297.09 0,-57.62 0,-271.15 0,-271.15 H 6470.8 l 400.36,623.99" /><path
           inkscape:connector-curvature="0"
           id="path360"
           style="fill:#171413;fill-opacity:1;fill-rule:nonzero;stroke:none"
           d="m 6569.69,4983.92 c 54.59,20.84 130.53,20.84 182.15,-4.47 51.61,-25.31 44.17,-89.83 27.79,-131.03 -16.38,-41.19 -65.02,-88.34 -138.97,-84.87 -73.95,3.48 -117.13,86.36 -122.59,135.5 -3.64,32.79 -2.97,64.02 51.62,84.87 z m -98.89,-14.15 v -54.53 c 8.75,0 15.26,-5.4 20.84,-16.19 5.59,-10.8 18.24,-52.49 22.71,-61.05 4.47,-8.56 25.31,-58.07 83.75,-78.17 58.44,-20.1 106.46,-12.66 149.27,21.96 42.81,34.62 58.07,93.81 64.4,121.35 6.32,27.55 24.19,33.5 27.54,36.85 3.35,3.35 4.47,11.91 4.47,21.96 0,10.06 0.37,26.06 -1.86,27.55 -2.24,1.49 -51,29.41 -120.98,34.25 -69.98,4.84 -136.98,-4.84 -180.91,-30.53 -43.92,-25.68 -51.74,-23.45 -69.23,-23.45" /></g></g><g
       id="g1536"><g
         id="g1512"><path
           inkscape:connector-curvature="0"
           id="path362"
           style="fill:#76b2a4;fill-opacity:1;fill-rule:nonzero;stroke:none;stroke-width:0.1"
           d="m 762.425,222.318 c 0,-63.703 -51.642,-115.344 -115.345,-115.344 -63.703,0 -115.345,51.641 -115.345,115.344 0,63.703 51.642,115.345 115.345,115.345 63.703,0 115.345,-51.642 115.345,-115.345" /><g
           id="g364"
           transform="scale(0.1)"><g
             clip-path="url(#clipPath370)"
             id="g366"><path
               inkscape:connector-curvature="0"
               id="path372"
               style="fill:#285667;fill-opacity:1;fill-rule:nonzero;stroke:none"
               d="m 6111.38,1950.58 -2.61,-0.41 h -0.01 c -6.91,-1.03 -36.03,-4.15 -77.03,-10.5 -2.35,-0.36 -4.67,-0.72 -7.1,-1.1 -2.62,-0.42 -5.32,-0.86 -8.02,-1.3 -2.73,-0.45 -5.47,-0.9 -8.28,-1.38 -2.69,-0.45 -5.38,-0.91 -8.13,-1.38 -3.21,-0.56 -6.48,-1.14 -9.77,-1.73 -2.53,-0.45 -5.01,-0.89 -7.59,-1.36 -5.33,-0.98 -10.75,-2 -16.27,-3.07 -1.27,-0.25 -2.55,-0.5 -3.83,-0.75 -5.45,-1.07 -10.97,-2.18 -16.57,-3.35 -2.15,-0.44 -4.33,-0.91 -6.5,-1.37 -4.41,-0.94 -8.84,-1.89 -13.31,-2.88 -2.38,-0.53 -4.76,-1.06 -7.15,-1.61 -4.56,-1.03 -9.15,-2.1 -13.77,-3.2 -2.18,-0.52 -4.35,-1.02 -6.54,-1.56 -6.26,-1.52 -12.55,-3.09 -18.88,-4.72 l -1.52,-0.39 c -6.91,-1.8 -13.84,-3.68 -20.79,-5.62 -1.77,-0.49 -3.53,-1.01 -5.29,-1.51 -5.18,-1.48 -10.35,-2.99 -15.52,-4.55 -2.2,-0.66 -4.38,-1.33 -6.57,-2 -4.93,-1.53 -9.84,-3.09 -14.74,-4.69 -2.08,-0.68 -4.16,-1.35 -6.24,-2.04 -5.86,-1.96 -11.69,-3.98 -17.49,-6.06 -0.97,-0.34 -1.94,-0.67 -2.91,-1.02 -6.83,-2.48 -13.58,-5.04 -20.28,-7.68 -1.39,-0.55 -2.75,-1.13 -4.14,-1.69 -5.18,-2.08 -10.32,-4.21 -15.39,-6.4 -2.01,-0.87 -3.98,-1.75 -5.97,-2.63 -4.53,-2.02 -9,-4.07 -13.41,-6.17 -1.95,-0.93 -3.9,-1.85 -5.83,-2.79 -4.85,-2.38 -9.61,-4.83 -14.3,-7.32 -1.27,-0.67 -2.57,-1.32 -3.83,-2 -5.92,-3.22 -11.71,-6.52 -17.32,-9.92 -0.98,-0.6 -1.9,-1.22 -2.87,-1.82 -4.52,-2.79 -8.93,-5.64 -13.22,-8.56 -1.65,-1.13 -3.25,-2.29 -4.87,-3.44 -3.56,-2.52 -7.02,-5.08 -10.39,-7.7 -1.62,-1.25 -3.24,-2.51 -4.81,-3.79 -3.43,-2.79 -6.72,-5.64 -9.93,-8.54 -1.21,-1.1 -2.48,-2.17 -3.66,-3.28 -4.27,-4.02 -8.34,-8.13 -12.14,-12.35 l -1.34,-1.61 c -3.24,-3.7 -6.3,-7.47 -9.15,-11.32 -1.07,-1.43 -2.03,-2.9 -3.04,-4.35 -2.13,-3.08 -4.14,-6.2 -6.01,-9.38 -0.97,-1.63 -1.9,-3.28 -2.79,-4.94 -1.76,-3.27 -3.34,-6.61 -4.81,-9.99 -0.66,-1.53 -1.39,-3.03 -2,-4.59 -1.92,-4.92 -3.61,-9.93 -4.9,-15.07 -27.53,-110.11 -83.42,-653.96 -83.42,-653.96 h 834.98 40.56 47.63 61.5 v 717.56 l -382.42,163.28" /><path
               inkscape:connector-curvature="0"
               id="path374"
               style="fill:#edbd9f;fill-opacity:1;fill-rule:nonzero;stroke:none"
               d="m 6493.8,2356.52 h -266.53 v -344.73 c 0,-51.2 84.53,-213.58 266.53,-213.58 v 558.31" /><path
               inkscape:connector-curvature="0"
               id="path376"
               style="fill:#f5d0b5;fill-opacity:1;fill-rule:nonzero;stroke:none"
               d="m 6493.8,3039.39 c -300.29,0 -344.77,-207.07 -344.77,-472.42 0,-293.61 175.65,-488.49 344.77,-488.49 v 960.91" /><path
               inkscape:connector-curvature="0"
               id="path378"
               style="fill:#f5d0b5;fill-opacity:1;fill-rule:nonzero;stroke:none"
               d="m 6153.07,2602.31 c -21.13,78.96 -50.05,78.96 -62.28,58.94 -12.23,-20.02 -3.01,-67.89 17.76,-144.34 16.63,-61.18 33.3,-89.87 56.71,-66.74 23.4,23.13 -12.19,152.14 -12.19,152.14" /><path
               inkscape:connector-curvature="0"
               id="path380"
               style="fill:#214350;fill-opacity:1;fill-rule:nonzero;stroke:none"
               d="m 6427.17,1571.1 -315.79,379.48 315.79,-354.23 66.63,190.95 -66.63,-216.2" /><path
               inkscape:connector-curvature="0"
               id="path382"
               style="fill:#ffffff;fill-opacity:1;fill-rule:nonzero;stroke:none"
               d="m 6325.79,1950.58 -98.52,86.75 c -47.5,-26.7 -115.89,-86.75 -115.89,-86.75 l 315.79,-354.23 66.63,190.95 v 15.34 l -168.01,147.94" /><path
               inkscape:connector-curvature="0"
               id="path384"
               style="fill:#e1bda7;fill-opacity:1;fill-rule:nonzero;stroke:none"
               d="m 6834.53,2602.31 c 21.13,78.96 50.05,78.96 62.28,58.94 12.23,-20.02 3.01,-67.89 -17.76,-144.34 -16.63,-61.18 -33.3,-89.87 -56.71,-66.74 -23.4,23.13 12.19,152.14 12.19,152.14" /><path
               inkscape:connector-curvature="0"
               id="path386"
               style="fill:#214854;fill-opacity:1;fill-rule:nonzero;stroke:none"
               d="m 6876.22,1950.58 2.61,-0.41 v 0 c 6.91,-1.03 36.04,-4.15 77.04,-10.5 2.35,-0.36 4.67,-0.72 7.1,-1.1 2.62,-0.42 5.31,-0.86 8.02,-1.3 2.73,-0.45 5.47,-0.9 8.28,-1.38 2.69,-0.45 5.38,-0.91 8.13,-1.38 3.21,-0.56 6.48,-1.14 9.77,-1.73 2.53,-0.45 5.01,-0.89 7.59,-1.36 5.32,-0.98 10.75,-2 16.27,-3.07 1.27,-0.25 2.55,-0.5 3.83,-0.75 5.45,-1.07 10.97,-2.18 16.57,-3.35 2.15,-0.44 4.33,-0.91 6.5,-1.37 4.41,-0.94 8.84,-1.89 13.31,-2.88 2.38,-0.53 4.75,-1.06 7.15,-1.61 4.56,-1.03 9.15,-2.1 13.76,-3.2 2.19,-0.52 4.36,-1.02 6.55,-1.56 6.26,-1.52 12.55,-3.09 18.88,-4.72 l 1.52,-0.39 c 6.91,-1.8 13.84,-3.68 20.79,-5.62 1.76,-0.49 3.52,-1.01 5.29,-1.51 5.18,-1.48 10.35,-2.99 15.52,-4.55 2.19,-0.66 4.38,-1.33 6.57,-2 4.92,-1.53 9.84,-3.09 14.74,-4.69 2.08,-0.68 4.16,-1.35 6.24,-2.04 5.86,-1.96 11.69,-3.98 17.49,-6.06 0.97,-0.34 1.94,-0.67 2.9,-1.02 6.83,-2.48 13.59,-5.04 20.29,-7.68 1.39,-0.55 2.75,-1.13 4.14,-1.69 5.18,-2.08 10.32,-4.21 15.39,-6.4 2.01,-0.87 3.98,-1.75 5.96,-2.63 4.53,-2.02 9,-4.07 13.42,-6.17 1.95,-0.93 3.9,-1.85 5.83,-2.79 4.85,-2.38 9.6,-4.83 14.29,-7.32 1.28,-0.67 2.58,-1.32 3.84,-2 5.92,-3.22 11.7,-6.52 17.32,-9.92 0.98,-0.6 1.9,-1.22 2.87,-1.82 4.52,-2.79 8.93,-5.64 13.22,-8.56 1.65,-1.13 3.25,-2.29 4.87,-3.44 3.56,-2.52 7.02,-5.08 10.39,-7.7 1.62,-1.25 3.23,-2.51 4.81,-3.79 3.43,-2.79 6.72,-5.64 9.93,-8.54 1.21,-1.1 2.48,-2.17 3.66,-3.28 4.27,-4.02 8.34,-8.13 12.14,-12.35 l 1.34,-1.61 c 3.24,-3.7 6.3,-7.47 9.15,-11.32 1.06,-1.43 2.03,-2.9 3.03,-4.35 2.14,-3.08 4.15,-6.2 6.02,-9.38 0.97,-1.63 1.9,-3.28 2.79,-4.94 1.76,-3.27 3.34,-6.61 4.81,-9.99 0.66,-1.53 1.39,-3.03 1.99,-4.59 1.93,-4.92 3.62,-9.93 4.91,-15.07 27.53,-110.11 83.41,-653.96 83.41,-653.96 h -834.97 -40.56 -47.63 -61.5 v 717.56 l 382.42,163.28" /><path
               inkscape:connector-curvature="0"
               id="path388"
               style="fill:#dcad95;fill-opacity:1;fill-rule:nonzero;stroke:none"
               d="m 6493.8,2356.52 h 266.53 v -344.73 c 0,-51.2 -84.53,-213.58 -266.53,-213.58 v 558.31" /><path
               inkscape:connector-curvature="0"
               id="path390"
               style="fill:#e1bda7;fill-opacity:1;fill-rule:nonzero;stroke:none"
               d="m 6493.8,3039.39 c 300.29,0 344.77,-207.07 344.77,-472.42 0,-293.61 -175.65,-488.49 -344.77,-488.49 v 960.91" /><path
               inkscape:connector-curvature="0"
               id="path392"
               style="fill:#5c8c84;fill-opacity:1;fill-rule:nonzero;stroke:none"
               d="m 6493.8,1787.3 5,5.6 6.02,5.51 c 6.04,0.22 11.98,0.62 17.79,1.2 l -28.81,-12.31 m 178.05,76.02 c 59.84,51.19 88.48,118.66 88.48,148.47 v 25.54 c 47.5,-27.81 115.89,-86.75 115.89,-86.75 l -204.37,-87.26" /><path
               inkscape:connector-curvature="0"
               id="path394"
               style="fill:#1c3941;fill-opacity:1;fill-rule:nonzero;stroke:none"
               d="m 6560.43,1571.1 -66.63,216.2 28.81,12.31 c 62.34,6.12 111.87,31.74 149.24,63.71 l 204.37,87.26 v 0 L 6560.43,1571.1" /><path
               inkscape:connector-curvature="0"
               id="path396"
               style="fill:#ad8a77;fill-opacity:1;fill-rule:nonzero;stroke:none"
               d="m 6504.82,1798.41 161.99,148.56 93.52,90.36 v -25.54 c 0,-29.81 -28.64,-97.28 -88.48,-148.47 -37.37,-31.97 -86.9,-57.59 -149.24,-63.71 -5.81,-0.58 -11.75,-0.98 -17.79,-1.2" /><path
               inkscape:connector-curvature="0"
               id="path398"
               style="fill:#ffffff;fill-opacity:1;fill-rule:nonzero;stroke:none"
               d="m 6661.81,1950.58 98.52,86.75 c 47.5,-26.7 115.89,-86.75 115.89,-86.75 l -315.79,-354.23 -66.63,190.95 v 15.34 l 168.01,147.94" /><path
               inkscape:connector-curvature="0"
               id="path400"
               style="fill:#fdf5b4;fill-opacity:1;fill-rule:nonzero;stroke:none"
               d="m 6493.8,3198.3 v 0.28 c -151.15,0 -368,-53.21 -394.4,-358.08 -19.88,-229.56 55.78,-361.68 55.78,-361.68 0,0 -9.25,201.06 39.46,341.14 25.25,-1.58 60.46,1.11 107.95,8.82 60.11,9.76 99.73,26.71 159.82,59.53 -79.37,-56.3 -148.82,-104.35 -148.82,-104.35 0,0 85.78,-17.08 180.21,-2.53 v 417.01 -0.14" /><path
               inkscape:connector-curvature="0"
               id="path402"
               style="fill:#ede49b;fill-opacity:1;fill-rule:nonzero;stroke:none"
               d="m 6670.77,2854.76 c -27.66,-74.95 -113.66,-114.37 -113.66,-114.37 0,0 165.96,34.27 221.89,144.31 74.17,-135.25 53.42,-405.88 53.42,-405.88 0,0 75.65,132.12 55.78,361.68 -26.4,304.87 -243.25,358.08 -394.4,358.08 v -0.14 -417.01 c 20.96,3.23 42.34,8 63.31,14.88 65.44,21.47 96.96,37.62 113.66,58.45" /></g></g><path
           inkscape:connector-curvature="0"
           id="path404"
           style="fill:#223d4c;fill-opacity:1;fill-rule:nonzero;stroke:none;stroke-width:0.1"
           d="m 640.828,252.132 c -6.173,-5.132 -17.491,-3.508 -21.055,3.441 -1.485,2.896 -1.806,6.167 -1.759,9.321 h 0.225 c 0,0 1.764,1.561 4.253,2.65 2.944,1.288 7.358,2.667 13.984,1.435 6.133,-1.141 9.568,-6.146 9.568,-6.146 h 0.215 c -0.387,-3.863 -2.255,-8.06 -5.431,-10.701 z m 8.569,12.811 c -5.997,0 -4.837,3.568 -12.594,5.177 -9.405,1.95 -16.111,-1.742 -18.564,-1.742 -1.417,0 -1.881,0 -4.389,0 v -3.484 h 3.665 c -0.083,-6.204 1.717,-13.21 9.03,-15.417 4.024,-1.215 8.935,-1.064 12.611,0.953 2.891,1.587 4.862,4.183 6.094,6.975 0.757,1.717 1.321,3.579 1.508,5.428 h 2.639 v 2.11" /><path
           inkscape:connector-curvature="0"
           id="path406"
           style="fill:#171f22;fill-opacity:1;fill-rule:nonzero;stroke:none;stroke-width:0.1"
           d="m 652.535,262.833 h 0.215 c 0,0 3.435,5.005 9.568,6.146 6.626,1.232 11.041,-0.147 13.985,-1.435 2.488,-1.089 4.252,-2.65 4.252,-2.65 h 0.225 c 0.047,-3.154 -0.274,-6.425 -1.759,-9.321 -3.563,-6.949 -14.882,-8.573 -21.055,-3.441 -3.176,2.641 -5.044,6.838 -5.431,10.701 z m -3.138,0 h 2.639 c 0.187,-1.849 0.751,-3.711 1.508,-5.428 1.232,-2.792 3.203,-5.388 6.094,-6.975 3.676,-2.017 8.587,-2.168 12.611,-0.953 7.313,2.207 9.113,9.213 9.03,15.417 h 3.665 v 3.484 c -2.508,0 -2.971,0 -4.389,0 -2.453,0 -9.159,3.692 -18.564,1.742 -7.757,-1.609 -6.597,-5.177 -12.594,-5.177 v -2.11" /></g></g><path
       style="fill:none;fill-opacity:1;fill-rule:nonzero;stroke:#f1304d;stroke-width:2.0999999;stroke-miterlimit:4;stroke-dasharray:none;stroke-opacity:1"
       d="m -20.891811,-245.91415 c -6.774825,0.13192 -11.575785,-2.30565 -13.56885,-2.30565 h -4.38867 v -3.48345 h 3.66504 c -0.083,-6.204 1.716292,-13.2105 9.029295,-15.41745 4.023998,-1.215 8.93484,-1.06343 12.610838,0.95362 2.891003,1.587 4.8617551,4.18208 6.0937502,6.9741 0.757005,1.71698 1.3217925,3.57968 1.50879,5.42873 h 2.6381851 2.63964755 c 0.18700501,-1.84905 0.75032252,-3.71175 1.50732754,-5.42873 1.23199501,-2.79202 3.20421011,-5.3871 6.09521271,-6.9741 3.6759979,-2.01705 8.5868399,-2.16862 12.6108379,-0.95362 7.313003,2.20695 9.112298,9.21345 9.029303,15.41745 h 3.66504 v 3.48345 h -4.388678 c -2.452995,0 -9.158963,3.69165 -18.5639629,1.74165 -7.7570027,-1.60898 -6.5977277,-5.17673 -12.5947278,-5.17673 -5.9970002,0 -4.8362626,3.56775 -12.5932583,5.17673 -1.763437,0.36562 -3.4317,0.53355 -4.99512,0.564 z m 0.10107,-1.22753 c 1.391595,-0.0238 2.910885,-0.16957 4.567388,-0.4776 6.132998,-1.14097 9.5668952,-6.14497 9.5668952,-6.14497 h 0.2153325 c -0.387,-3.86303 -2.2541776,-8.06115 -5.4301797,-10.7022 -6.172996,-5.13195 -17.491666,-3.50655 -21.055666,3.44242 -1.485,2.89598 -1.806278,6.1668 -1.759275,9.32078 h 0.225585 c 0,0 1.763445,1.5609 4.25244,2.6499 2.208,0.966 5.242703,1.98315 9.41748,1.91167 z m 34.976079,0 c 4.175062,0.0715 7.20948,-0.94567 9.41748,-1.91167 2.487998,-1.089 4.25244,-2.6499 4.25244,-2.6499 h 0.225585 c 0.047,-3.15398 -0.274275,-6.4248 -1.759275,-9.32078 -3.563003,-6.94897 -14.882663,-8.57437 -21.0556655,-3.44242 -3.1759951,2.64105 -5.04317262,6.83917 -5.43017263,10.7022 h 0.2138625 c 0,0 3.43536013,5.004 9.56836523,6.14497 1.6564954,0.30803 3.1756954,0.45375 4.5673804,0.4776 z"
       id="path1576"
       inkscape:connector-curvature="0" /><g
       id="g2818"
       inkscape:export-filename="/home/gh05tm4n/Documents/Terminal/frontend/app/src/main/res/drawable/user_avatar.png"
       inkscape:export-xdpi="246.48"
       inkscape:export-ydpi="246.48"><path
         inkscape:export-ydpi="61.619999"
         inkscape:export-xdpi="61.619999"
         inkscape:export-filename="/home/gh05tm4n/Documents/Terminal/frontend/app/src/main/res/drawable/user_avatar.png"
         id="path1540"
         d="m 266.39649,-232.89645 -0.26074,-0.0413 h -10e-4 c -0.691,-0.10298 -3.60214,-0.41528 -7.70215,-1.0503 -0.23499,-0.036 -0.46744,-0.072 -0.71044,-0.10988 -0.26201,-0.042 -0.53127,-0.0863 -0.80127,-0.13035 -0.273,-0.045 -0.54811,-0.0897 -0.8291,-0.1377 -0.26901,-0.045 -0.53799,-0.0907 -0.813,-0.1377 -0.321,-0.0563 -0.64804,-0.11385 -0.97704,-0.17287 -0.253,-0.045 -0.50079,-0.0892 -0.75879,-0.1362 -0.53301,-0.098 -1.07398,-0.20063 -1.62598,-0.30765 -0.127,-0.0248 -0.25579,-0.0495 -0.38379,-0.075 -0.545,-0.10695 -1.09673,-0.2184 -1.65674,-0.3354 -0.215,-0.0442 -0.43339,-0.0902 -0.65039,-0.13628 -0.441,-0.094 -0.88308,-0.18952 -1.33008,-0.28852 -0.238,-0.0533 -0.47731,-0.10613 -0.7163,-0.16118 -0.456,-0.10297 -0.91496,-0.20932 -1.37696,-0.31935 -0.218,-0.0517 -0.43432,-0.10267 -0.65332,-0.15667 -0.626,-0.15203 -1.25518,-0.3087 -1.88818,-0.47175 l -0.15235,-0.0382 c -0.69099,-0.18 -1.38361,-0.36855 -2.07861,-0.5625 -0.177,-0.0488 -0.3528,-0.10088 -0.52881,-0.1509 -0.518,-0.14798 -1.03573,-0.29955 -1.55273,-0.45555 -0.22,-0.066 -0.43725,-0.13223 -0.65625,-0.19928 -0.493,-0.153 -0.98363,-0.3087 -1.47364,-0.46875 -0.20799,-0.0683 -0.41602,-0.13605 -0.62402,-0.20505 -0.586,-0.19597 -1.16902,-0.39697 -1.74902,-0.60495 -0.097,-0.0337 -0.19451,-0.0675 -0.2915,-0.1026 -0.68301,-0.24795 -1.35735,-0.50355 -2.02735,-0.76755 -0.139,-0.0548 -0.27555,-0.1137 -0.41455,-0.16995 -0.518,-0.20797 -1.03255,-0.42112 -1.53955,-0.64012 -0.201,-0.087 -0.39719,-0.17415 -0.59619,-0.2622 -0.453,-0.20198 -0.9008,-0.40665 -1.3418,-0.61665 -0.195,-0.093 -0.39001,-0.18585 -0.583,-0.27983 -0.48501,-0.23797 -0.96069,-0.48195 -1.42969,-0.73095 -0.12701,-0.0667 -0.25633,-0.13267 -0.38233,-0.2007 -0.592,-0.32197 -1.17191,-0.65167 -1.73291,-0.99165 -0.098,-0.06 -0.19011,-0.12165 -0.28711,-0.18165 -0.452,-0.279 -0.89229,-0.56497 -1.32129,-0.85695 -0.165,-0.11302 -0.32579,-0.22927 -0.48779,-0.34425 -0.356,-0.252 -0.70157,-0.507 -1.03857,-0.76905 -0.162,-0.12495 -0.32348,-0.2514 -0.48047,-0.37935 -0.343,-0.279 -0.67217,-0.564 -0.99317,-0.85402 -0.121,-0.11003 -0.24821,-0.21713 -0.36621,-0.32813 -0.427,-0.402 -0.83435,-0.81285 -1.21435,-1.23487 l -0.1333,-0.1611 c -0.324,-0.37005 -0.63053,-0.74738 -0.91553,-1.13235 -0.107,-0.14303 -0.20223,-0.2901 -0.30322,-0.43508 -0.213,-0.30802 -0.41505,-0.6195 -0.60206,-0.9375 -0.097,-0.16297 -0.18932,-0.32767 -0.27831,-0.49365 -0.17601,-0.327 -0.33494,-0.66105 -0.48194,-0.999 -0.066,-0.153 -0.13822,-0.30397 -0.19921,-0.45997 -0.19203,-0.492 -0.36173,-0.99188 -0.49073,-1.50585 -0.88116,-3.52433 -2.05589,-11.63745 -3.2417,-20.84325 21.10552,-27.11145 54.04862,-44.55323 91.06787,-44.55323 39.39166,0 74.16392,19.75118 94.97315,49.8852 -0.94137,6.92138 -1.83969,12.675 -2.54883,15.51128 -0.129,0.51397 -0.29772,1.01385 -0.49072,1.50585 -0.06,0.156 -0.13322,0.30697 -0.19922,0.45997 -0.147,0.33795 -0.30447,0.672 -0.48046,0.999 -0.089,0.16598 -0.18279,0.33068 -0.27979,0.49365 -0.187,0.318 -0.38805,0.62948 -0.60206,0.9375 -0.1,0.14498 -0.19722,0.29205 -0.30321,0.43508 -0.285,0.38497 -0.59007,0.7623 -0.91407,1.13235 l -0.13476,0.1611 c -0.38001,0.42202 -0.78589,0.83287 -1.2129,1.23487 -0.11799,0.111 -0.24521,0.2181 -0.36621,0.32813 -0.321,0.29002 -0.65016,0.57502 -0.99316,0.85402 -0.158,0.12795 -0.31994,0.2544 -0.48194,0.37935 -0.33699,0.26205 -0.68256,0.51705 -1.03857,0.76905 -0.162,0.11498 -0.32133,0.23123 -0.48633,0.34425 -0.429,0.29198 -0.87075,0.57795 -1.32275,0.85695 -0.097,0.06 -0.18911,0.12165 -0.28711,0.18165 -0.562,0.33998 -1.13944,0.66968 -1.73145,0.99165 -0.126,0.0683 -0.25578,0.13373 -0.38379,0.2007 -0.46899,0.249 -0.94468,0.49298 -1.42968,0.73095 -0.193,0.094 -0.38801,0.18683 -0.58301,0.27983 -0.442,0.21 -0.88879,0.41467 -1.34179,0.61665 -0.198,0.0881 -0.39519,0.1752 -0.59619,0.2622 -0.507,0.219 -1.02009,0.43215 -1.53809,0.64012 -0.13903,0.0563 -0.27556,0.11498 -0.41455,0.16995 -0.67,0.264 -1.34581,0.5196 -2.02881,0.76755 -0.096,0.0352 -0.19304,0.0683 -0.29005,0.1026 -0.57999,0.20798 -1.16301,0.40898 -1.74902,0.60495 -0.208,0.069 -0.41602,0.1371 -0.62402,0.20505 -0.49,0.16005 -0.98163,0.31575 -1.47363,0.46875 -0.219,0.0667 -0.43872,0.13328 -0.65772,0.19928 -0.517,0.156 -1.03325,0.30757 -1.55127,0.45555 -0.17699,0.0503 -0.35281,0.10185 -0.5288,0.1509 -0.69501,0.19395 -1.38909,0.3825 -2.08008,0.5625 l -0.15235,0.0382 c -0.633,0.16305 -1.26071,0.31972 -1.88672,0.47175 -0.219,0.054 -0.43725,0.1047 -0.65625,0.15667 -0.461,0.11003 -0.91949,0.21638 -1.37548,0.31935 -0.24002,0.0547 -0.47685,0.10815 -0.71485,0.16118 -0.447,0.099 -0.89054,0.19455 -1.33154,0.28852 -0.217,0.0457 -0.43391,0.0923 -0.64893,0.13628 -0.56,0.117 -1.1132,0.22845 -1.6582,0.3354 -0.128,0.0247 -0.25532,0.0495 -0.38233,0.075 -0.552,0.10702 -1.09544,0.20962 -1.62744,0.30765 -0.258,0.0473 -0.50579,0.0912 -0.75879,0.1362 -0.329,0.0592 -0.65604,0.11685 -0.97704,0.17287 -0.27501,0.0472 -0.54399,0.0927 -0.813,0.1377 -0.28099,0.048 -0.55463,0.0927 -0.82763,0.1377 -0.271,0.0443 -0.54073,0.0883 -0.80274,0.13035 -0.243,0.0383 -0.47398,0.0743 -0.70898,0.10988 -4.1,0.63502 -7.01408,0.94732 -7.70508,1.0503 l -0.26074,0.0413 -31.5791,-35.42288 -6.66211,19.09425 -6.66358,-19.09425 z"
         style="fill:none;fill-opacity:1;fill-rule:nonzero;stroke:#ffffff;stroke-width:3;stroke-miterlimit:4;stroke-dasharray:none;stroke-opacity:1"
         inkscape:connector-curvature="0" /><path
         inkscape:export-ydpi="61.619999"
         inkscape:export-xdpi="61.619999"
         inkscape:export-filename="/home/gh05tm4n/Documents/Terminal/frontend/app/src/main/res/drawable/user_avatar.png"
         id="path1542"
         d="m 277.98634,-202.08345 v -22.1382 l 9.85107,-8.6748 16.80176,-14.79345 16.80029,14.79345 9.85254,8.6748 v 22.1382 c -6.69072,-11.37345 -16.77933,-18.02348 -26.65283,-18.02348 -9.87351,0 -19.96168,6.65003 -26.65283,18.02348 z"
         style="fill:none;fill-opacity:1;fill-rule:nonzero;stroke:#ffffff;stroke-width:3;stroke-miterlimit:4;stroke-dasharray:none;stroke-opacity:1"
         inkscape:connector-curvature="0" /><path
         inkscape:export-ydpi="61.619999"
         inkscape:export-xdpi="61.619999"
         inkscape:export-filename="/home/gh05tm4n/Documents/Terminal/frontend/app/src/main/res/drawable/user_avatar.png"
         id="path1544"
         d="m 301.50001,-139.12305 c -6.009,-3.282 -9.97045,-4.97708 -15.98144,-5.95313 -4.74901,-0.771 -8.27091,-1.0398 -10.7959,-0.88177 -4.87101,-14.00805 -3.94629,-34.1148 -3.94629,-34.1148 0,0 -0.0634,0.12195 -0.0762,0.14505 3.05095,-24.46178 18.75418,-40.17923 33.93897,-40.17923 15.18478,0 30.88679,15.71745 33.9375,40.17923 -0.0128,-0.0233 -0.0762,-0.14505 -0.0762,-0.14505 0,0 2.07472,27.06292 -5.34228,40.5879 -5.593,-11.004 -22.18799,-14.43015 -22.18799,-14.43015 0,0 8.59973,3.94102 11.36573,11.436 -1.67001,-2.08298 -4.82172,-3.69773 -11.36573,-5.84468 -2.097,-0.68805 -4.23505,-1.16527 -6.33105,-1.4883 -9.443,-1.455 -18.02197,0.25343 -18.02197,0.25343 0,0 6.94581,4.80555 14.88281,10.4355 z"
         style="fill:none;fill-opacity:1;fill-rule:nonzero;stroke:#ffffff;stroke-width:3;stroke-miterlimit:4;stroke-dasharray:none;stroke-opacity:1"
         inkscape:connector-curvature="0" /><path
         inkscape:export-ydpi="61.619999"
         inkscape:export-xdpi="61.619999"
         inkscape:export-filename="/home/gh05tm4n/Documents/Terminal/frontend/app/src/main/res/drawable/user_avatar.png"
         inkscape:connector-curvature="0"
         id="path1548"
         style="fill:#214350;fill-opacity:1;fill-rule:nonzero;stroke:none;stroke-width:0.1"
         d="m 297.97585,-270.84454 -31.579,37.948 31.579,-35.423 6.663,19.095 -6.663,-21.62" /><path
         inkscape:export-ydpi="61.619999"
         inkscape:export-xdpi="61.619999"
         inkscape:export-filename="/home/gh05tm4n/Documents/Terminal/frontend/app/src/main/res/drawable/user_avatar.png"
         inkscape:connector-curvature="0"
         id="path1550"
         style="fill:none;fill-opacity:1;fill-rule:nonzero;stroke:#ffffff;stroke-width:3;stroke-miterlimit:4;stroke-dasharray:none;stroke-opacity:1"
         d="m 287.83785,-232.89654 -9.852,8.675 c -4.75,-2.67 -11.589,-8.675 -11.589,-8.675 l 31.579,-35.423 6.663,19.095 v 1.534 l -16.801,14.794" /><path
         inkscape:export-ydpi="61.619999"
         inkscape:export-xdpi="61.619999"
         inkscape:export-filename="/home/gh05tm4n/Documents/Terminal/frontend/app/src/main/res/drawable/user_avatar.png"
         inkscape:connector-curvature="0"
         id="path1566"
         style="fill:none;fill-opacity:1;fill-rule:nonzero;stroke:#ffffff;stroke-width:3;stroke-miterlimit:4;stroke-dasharray:none;stroke-opacity:1"
         d="m 321.43985,-232.89654 9.852,8.675 c 4.75,-2.67 11.589,-8.675 11.589,-8.675 l -31.579,-35.423 -6.663,19.095 v 1.534 l 16.801,14.794" /><path
         inkscape:export-ydpi="61.619999"
         inkscape:export-xdpi="61.619999"
         inkscape:export-filename="/home/gh05tm4n/Documents/Terminal/frontend/app/src/main/res/drawable/user_avatar.png"
         id="path1568"
         d="m 304.63917,-108.09615 c -15.115,0 -36.80092,-5.3211 -39.44092,-35.80815 -1.988,-22.956 5.57813,-36.16845 5.57813,-36.16845 0,0 -0.92472,20.10675 3.94629,34.1148 2.52499,-0.15803 6.04689,0.11077 10.7959,0.88177 6.01099,0.97605 9.97244,2.67113 15.98144,5.95313 -7.937,-5.62995 -14.88281,-10.4355 -14.88281,-10.4355 0,0 8.57897,-1.70843 18.02197,-0.25343 2.096,0.32303 4.23405,0.80025 6.33105,1.4883 6.54401,2.14695 9.69572,3.7617 11.36573,5.84468 -2.766,-7.49498 -11.36573,-11.436 -11.36573,-11.436 0,0 16.59499,3.42615 22.18799,14.43015 7.417,-13.52498 5.34228,-40.5879 5.34228,-40.5879 0,0 7.56513,13.21245 5.57813,36.16845 -2.64,30.48705 -24.32445,35.80815 -39.43945,35.80815 z"
         style="fill:none;fill-opacity:1;fill-rule:nonzero;stroke:#ffffff;stroke-width:3;stroke-miterlimit:4;stroke-dasharray:none;stroke-opacity:1"
         inkscape:connector-curvature="0" /><path
         inkscape:export-ydpi="61.619999"
         inkscape:export-xdpi="61.619999"
         inkscape:export-filename="/home/gh05tm4n/Documents/Terminal/frontend/app/src/main/res/drawable/user_avatar.png"
         inkscape:connector-curvature="0"
         id="path1538"
         style="fill:none;fill-opacity:1;fill-rule:nonzero;stroke:#ffffff;stroke-width:3;stroke-miterlimit:4;stroke-dasharray:none;stroke-opacity:1"
         d="m 417.68385,-205.63654 c 0,-63.703 -51.642,-115.344 -115.345,-115.344 -63.703,0 -115.345,51.641 -115.345,115.344 0,63.703 51.642,115.345 115.345,115.345 63.703,0 115.345,-51.642 115.345,-115.345" /></g></g></svg>