<?xml version="1.0" encoding="UTF-8" standalone="no"?>
<!-- Created with Inkscape (http://www.inkscape.org/) -->

<svg
   xmlns:dc="http://purl.org/dc/elements/1.1/"
   xmlns:cc="http://creativecommons.org/ns#"
   xmlns:rdf="http://www.w3.org/1999/02/22-rdf-syntax-ns#"
   xmlns:svg="http://www.w3.org/2000/svg"
   xmlns="http://www.w3.org/2000/svg"
   xmlns:sodipodi="http://sodipodi.sourceforge.net/DTD/sodipodi-0.dtd"
   xmlns:inkscape="http://www.inkscape.org/namespaces/inkscape"
   width="210mm"
   height="297mm"
   viewBox="0 0 210 297"
   version="1.1"
   id="svg945"
   inkscape:version="0.92.4 5da689c313, 2019-01-14"
   sodipodi:docname="CastleLogo.svg">
  <defs
     id="defs939" />
  <sodipodi:namedview
     id="base"
     pagecolor="#ffffff"
     bordercolor="#666666"
     borderopacity="1.0"
     inkscape:pageopacity="0.0"
     inkscape:pageshadow="2"
     inkscape:zoom="0.70710678"
     inkscape:cx="190.6681"
     inkscape:cy="1014.0472"
     inkscape:document-units="px"
     inkscape:current-layer="layer1"
     showgrid="false"
     showborder="false"
     inkscape:snap-text-baseline="true"
     inkscape:object-nodes="true"
     inkscape:window-width="1920"
     inkscape:window-height="1054"
     inkscape:window-x="0"
     inkscape:window-y="0"
     inkscape:window-maximized="1" />
  <metadata
     id="metadata942">
    <rdf:RDF>
      <cc:Work
         rdf:about="">
        <dc:format>image/svg+xml</dc:format>
        <dc:type
           rdf:resource="http://purl.org/dc/dcmitype/StillImage" />
        <dc:title />
      </cc:Work>
    </rdf:RDF>
  </metadata>
  <g
     inkscape:label="Layer 1"
     inkscape:groupmode="layer"
     id="layer1">
    <path
       style="fill:#2a858b;fill-opacity:1;stroke:none;stroke-width:0.97711998;stroke-opacity:1"
       d="M 218.49609 -244.31836 L 160.52344 -229.23438 L 163.19922 -153.70898 L 51.855469 -155.13672 L 33.255859 -196.11719 L -17.230469 -182.98047 L -17.230469 16.019531 L 47.910156 43.328125 L 12.84375 261.5957 L 81.107422 243.30469 L 81.107422 74.519531 C 81.107422 62.331532 90.919438 52.519531 103.10742 52.519531 C 115.29542 52.519531 125.10742 62.331532 125.10742 74.519531 L 125.10742 231.51562 L 159.10742 222.40625 L 159.10742 74.519531 C 159.10742 62.331532 168.91942 52.519531 181.10742 52.519531 C 193.29542 52.519531 203.10742 62.331532 203.10742 74.519531 L 203.10742 210.61523 L 217.07422 206.87305 L 237.10742 212.2168 L 237.10742 74.519531 C 237.10742 62.331532 246.91942 52.519531 259.10742 52.519531 C 271.29542 52.519531 281.10742 62.331532 281.10742 74.519531 L 281.10742 223.95703 L 315.10742 233.02734 L 315.10742 74.519531 C 315.10742 62.331532 324.91942 52.519531 337.10742 52.519531 C 349.29542 52.519531 359.10742 62.331532 359.10742 74.519531 L 359.10742 244.76562 L 422.1875 261.5957 L 387.44727 45.365234 L 457.44727 16.019531 L 457.44727 -182.98047 L 406.88867 -195.95898 L 388.36133 -155.13672 L 277.01562 -153.70898 L 279.66992 -228.61523 L 218.49609 -244.31836 z M 56.636719 -92.480469 L 383.57812 -92.480469 C 395.22842 -92.480469 404.60742 -83.101465 404.60742 -71.451172 L 404.60742 -69.509766 C 404.60742 -57.859472 395.22842 -48.480469 383.57812 -48.480469 L 56.636719 -48.480469 C 44.986425 -48.480469 35.607422 -57.859472 35.607422 -69.509766 L 35.607422 -71.451172 C 35.607422 -83.101465 44.986425 -92.480469 56.636719 -92.480469 z M 96.636719 -21.480469 L 343.57812 -21.480469 C 355.22842 -21.480469 364.60742 -12.101465 364.60742 -0.45117188 L 364.60742 1.4902344 C 364.60742 13.140528 355.22842 22.519531 343.57812 22.519531 L 96.636719 22.519531 C 84.986425 22.519531 75.607422 13.140528 75.607422 1.4902344 L 75.607422 -0.45117188 C 75.607422 -12.101465 84.986425 -21.480469 96.636719 -21.480469 z "
       transform="scale(0.26458333)"
       id="path1502" />
    <flowRoot
       xml:space="preserve"
       id="flowRoot821"
       style="font-style:normal;font-weight:normal;font-size:40px;line-height:1.25;font-family:sans-serif;letter-spacing:0px;word-spacing:0px;fill:#2a858b;fill-opacity:1;stroke:none"
       transform="matrix(0.57241522,0,0,0.57241522,-71.853723,-136.6834)"><flowRegion
         id="flowRegion823"
         style="fill:#2a858b;fill-opacity:1"><rect
           id="rect825"
           width="728.32001"
           height="178.1909"
           x="-131.52187"
           y="374.4007"
           style="fill:#2a858b;fill-opacity:1" /></flowRegion><flowPara
         id="flowPara827"
         style="font-style:normal;font-variant:normal;font-weight:normal;font-stretch:normal;font-size:86.66667175px;font-family:'Suez One';-inkscape-font-specification:'Suez One, Normal';font-variant-ligatures:normal;font-variant-caps:normal;font-variant-numeric:normal;font-feature-settings:normal;text-align:center;writing-mode:lr-tb;text-anchor:middle;fill:#2a858b;fill-opacity:1">Terminal</flowPara></flowRoot>  </g>
</svg>
