<?xml version="1.0" encoding="UTF-8" standalone="no"?>
<!-- Created with Inkscape (http://www.inkscape.org/) -->

<svg
   xmlns:dc="http://purl.org/dc/elements/1.1/"
   xmlns:cc="http://creativecommons.org/ns#"
   xmlns:rdf="http://www.w3.org/1999/02/22-rdf-syntax-ns#"
   xmlns:svg="http://www.w3.org/2000/svg"
   xmlns="http://www.w3.org/2000/svg"
   xmlns:sodipodi="http://sodipodi.sourceforge.net/DTD/sodipodi-0.dtd"
   xmlns:inkscape="http://www.inkscape.org/namespaces/inkscape"
   version="1.1"
   id="svg2"
   xml:space="preserve"
   width="1666.6667"
   height="1000"
   viewBox="0 0 1666.6667 1000"
   sodipodi:docname="email.svg"
   inkscape:version="0.92.4 5da689c313, 2019-01-14"><metadata
     id="metadata8"><rdf:RDF><cc:Work
         rdf:about=""><dc:format>image/svg+xml</dc:format><dc:type
           rdf:resource="http://purl.org/dc/dcmitype/StillImage" /><dc:title></dc:title></cc:Work></rdf:RDF></metadata><defs
     id="defs6" /><sodipodi:namedview
     pagecolor="#ffffff"
     bordercolor="#666666"
     borderopacity="1"
     objecttolerance="10"
     gridtolerance="10"
     guidetolerance="10"
     inkscape:pageopacity="0"
     inkscape:pageshadow="2"
     inkscape:window-width="1920"
     inkscape:window-height="1054"
     id="namedview4"
     showgrid="false"
     showborder="false"
     inkscape:zoom="0.74026562"
     inkscape:cx="833.33337"
     inkscape:cy="500"
     inkscape:window-x="0"
     inkscape:window-y="0"
     inkscape:window-maximized="1"
     inkscape:current-layer="g10" /><g
     id="g10"
     inkscape:groupmode="layer"
     inkscape:label="ink_ext_XXXXXX"
     transform="matrix(1.3333333,0,0,-1.3333333,0,1000)"><g
       id="g980"
       inkscape:export-filename="/home/gh05tm4n/Documents/Terminal/frontend/app/src/main/res/drawable/email.png"
       inkscape:export-xdpi="89.529999"
       inkscape:export-ydpi="89.529999"><path
         d="M 566.24845,389.82524 H 964.93461 V 620.71971 H 566.24845 Z m 411.00178,-24.63123 h -423.3174 c -6.80314,0 -12.31561,5.5137 -12.31561,12.31561 v 255.52571 c 0,6.80191 5.51247,12.31562 12.31561,12.31562 h 423.3174 c 6.80192,0 12.31562,-5.51371 12.31562,-12.31562 V 377.50962 c 0,-6.80191 -5.5137,-12.31561 -12.31562,-12.31561"
         style="fill:#ffffff;fill-opacity:1;fill-rule:nonzero;stroke:none;stroke-width:3.6946857;stroke-miterlimit:4;stroke-dasharray:none;stroke-opacity:1"
         id="path18"
         inkscape:connector-curvature="0" /><path
         d="m 765.59153,450.7346 c -2.73037,0 -5.45951,0.90397 -7.71081,2.71313 L 546.22079,623.43284 c -5.3031,4.25874 -6.15042,12.01019 -1.89044,17.31453 4.25874,5.30187 12.01019,6.14919 17.31453,1.89044 L 765.59153,478.84624 969.53819,642.63781 c 5.3031,4.25875 13.05455,3.41143 17.3133,-1.89044 4.25874,-5.30434 3.41389,-13.05579 -1.89045,-17.31453 L 773.30357,453.44773 c -2.25252,-1.80916 -4.98167,-2.71313 -7.71204,-2.71313"
         style="fill:#ffffff;fill-opacity:1;fill-rule:nonzero;stroke:none;stroke-width:3.6946857;stroke-miterlimit:4;stroke-dasharray:none;stroke-opacity:1"
         id="path20"
         inkscape:connector-curvature="0" /><path
         d="m 553.93899,365.19401 c -3.49887,0 -6.97187,1.48156 -9.40913,4.36096 -4.39298,5.19349 -3.74518,12.96342 1.44832,17.35763 l 154.94773,131.08499 c 5.19226,4.39298 12.96342,3.74518 17.3564,-1.44832 4.39421,-5.19226 3.74518,-12.96342 -1.44832,-17.3564 L 561.88626,368.10788 c -2.31287,-1.95695 -5.13808,-2.91387 -7.94727,-2.91387"
         style="fill:#ffffff;fill-opacity:1;fill-rule:nonzero;stroke:none;stroke-width:3.6946857;stroke-miterlimit:4;stroke-dasharray:none;stroke-opacity:1"
         id="path22"
         inkscape:connector-curvature="0" /><path
         d="m 977.24407,365.19401 c -2.81042,0 -5.63563,0.95569 -7.9485,2.91387 L 814.34661,499.19287 c -5.19227,4.39298 -5.84007,12.16414 -1.44832,17.3564 4.39421,5.1935 12.16414,5.8413 17.35763,1.44832 L 985.20489,386.9126 c 5.19103,-4.39421 5.84006,-12.16414 1.44708,-17.35763 -2.43603,-2.87816 -5.91026,-4.36096 -9.4079,-4.36096"
         style="fill:#ffffff;fill-opacity:1;fill-rule:nonzero;stroke:none;stroke-width:3.6946857;stroke-miterlimit:4;stroke-dasharray:none;stroke-opacity:1"
         id="path24"
         inkscape:connector-curvature="0" /><path
         d="m 509.83306,619.49061 h -95.41033 c -6.80315,0 -12.31562,5.5137 -12.31562,12.31562 0,6.80191 5.51247,12.31562 12.31562,12.31562 h 95.41033 c 6.80192,0 12.31562,-5.51371 12.31562,-12.31562 0,-6.80192 -5.5137,-12.31562 -12.31562,-12.31562"
         style="fill:#f1304d;fill-opacity:1;fill-rule:nonzero;stroke:none;stroke-width:3.6946857;stroke-miterlimit:4;stroke-dasharray:none;stroke-opacity:1"
         id="path26"
         inkscape:connector-curvature="0" /><path
         d="m 509.83306,568.52734 h -24.12753 c -6.80068,0 -12.31561,5.51371 -12.31561,12.31562 0,6.80192 5.51493,12.31562 12.31561,12.31562 h 24.12753 c 6.80192,0 12.31562,-5.5137 12.31562,-12.31562 0,-6.80191 -5.5137,-12.31562 -12.31562,-12.31562"
         style="fill:#f1304d;fill-opacity:1;fill-rule:nonzero;stroke:none;stroke-width:3.6946857;stroke-miterlimit:4;stroke-dasharray:none;stroke-opacity:1"
         id="path28"
         inkscape:connector-curvature="0" /><path
         d="M 389.19788,568.52734 H 272.74877 c -6.80068,0 -12.31562,5.51371 -12.31562,12.31562 0,6.80192 5.51494,12.31562 12.31562,12.31562 h 116.44911 c 6.80315,0 12.31562,-5.5137 12.31562,-12.31562 0,-6.80191 -5.51247,-12.31562 -12.31562,-12.31562"
         style="fill:#f1304d;fill-opacity:1;fill-rule:nonzero;stroke:none;stroke-width:3.6946857;stroke-miterlimit:4;stroke-dasharray:none;stroke-opacity:1"
         id="path30"
         inkscape:connector-curvature="0" /><path
         d="m 509.83306,517.56408 h -95.41033 c -6.80315,0 -12.31562,5.5137 -12.31562,12.31562 0,6.80192 5.51247,12.31562 12.31562,12.31562 h 95.41033 c 6.80192,0 12.31562,-5.5137 12.31562,-12.31562 0,-6.80192 -5.5137,-12.31562 -12.31562,-12.31562"
         style="fill:#f1304d;fill-opacity:1;fill-rule:nonzero;stroke:none;stroke-width:3.6946857;stroke-miterlimit:4;stroke-dasharray:none;stroke-opacity:1"
         id="path32"
         inkscape:connector-curvature="0" /><path
         d="m 355.20184,517.56408 h -47.70578 c -6.80192,0 -12.31562,5.5137 -12.31562,12.31562 0,6.80192 5.5137,12.31562 12.31562,12.31562 h 47.70578 c 6.80192,0 12.31562,-5.5137 12.31562,-12.31562 0,-6.80192 -5.5137,-12.31562 -12.31562,-12.31562"
         style="fill:#f1304d;fill-opacity:1;fill-rule:nonzero;stroke:none;stroke-width:3.6946857;stroke-miterlimit:4;stroke-dasharray:none;stroke-opacity:1"
         id="path34"
         inkscape:connector-curvature="0" /><path
         d="M 509.83306,466.59958 H 390.2952 c -6.80192,0 -12.31562,5.51371 -12.31562,12.31562 0,6.80192 5.5137,12.31562 12.31562,12.31562 h 119.53786 c 6.80192,0 12.31562,-5.5137 12.31562,-12.31562 0,-6.80191 -5.5137,-12.31562 -12.31562,-12.31562"
         style="fill:#f1304d;fill-opacity:1;fill-rule:nonzero;stroke:none;stroke-width:3.6946857;stroke-miterlimit:4;stroke-dasharray:none;stroke-opacity:1"
         id="path36"
         inkscape:connector-curvature="0" /><path
         d="m 509.83306,415.63632 h -29.61044 c -6.80192,0 -12.31562,5.5137 -12.31562,12.31562 0,6.80191 5.5137,12.31562 12.31562,12.31562 h 29.61044 c 6.80192,0 12.31562,-5.51371 12.31562,-12.31562 0,-6.80192 -5.5137,-12.31562 -12.31562,-12.31562"
         style="fill:#f1304d;fill-opacity:1;fill-rule:nonzero;stroke:none;stroke-width:3.6946857;stroke-miterlimit:4;stroke-dasharray:none;stroke-opacity:1"
         id="path38"
         inkscape:connector-curvature="0" /><path
         d="m 444.03317,415.63632 h -101.9918 c -6.80068,0 -12.31562,5.5137 -12.31562,12.31562 0,6.80191 5.51494,12.31562 12.31562,12.31562 h 101.9918 c 6.80069,0 12.31562,-5.51371 12.31562,-12.31562 0,-6.80192 -5.51493,-12.31562 -12.31562,-12.31562"
         style="fill:#f1304d;fill-opacity:1;fill-rule:nonzero;stroke:none;stroke-width:3.6946857;stroke-miterlimit:4;stroke-dasharray:none;stroke-opacity:1"
         id="path40"
         inkscape:connector-curvature="0" /><path
         d="m 509.83306,364.67305 h -65.79989 c -6.80314,0 -12.31562,5.51371 -12.31562,12.31562 0,6.80192 5.51248,12.31562 12.31562,12.31562 h 65.79989 c 6.80192,0 12.31562,-5.5137 12.31562,-12.31562 0,-6.80191 -5.5137,-12.31562 -12.31562,-12.31562"
         style="fill:#f1304d;fill-opacity:1;fill-rule:nonzero;stroke:none;stroke-width:3.6946857;stroke-miterlimit:4;stroke-dasharray:none;stroke-opacity:1"
         id="path42"
         inkscape:connector-curvature="0" /></g></g></svg>