<?xml version="1.0" encoding="UTF-8" standalone="no"?>
<!-- Created with Inkscape (http://www.inkscape.org/) -->

<svg
   xmlns:dc="http://purl.org/dc/elements/1.1/"
   xmlns:cc="http://creativecommons.org/ns#"
   xmlns:rdf="http://www.w3.org/1999/02/22-rdf-syntax-ns#"
   xmlns:svg="http://www.w3.org/2000/svg"
   xmlns="http://www.w3.org/2000/svg"
   xmlns:sodipodi="http://sodipodi.sourceforge.net/DTD/sodipodi-0.dtd"
   xmlns:inkscape="http://www.inkscape.org/namespaces/inkscape"
   width="210mm"
   height="297mm"
   viewBox="0 0 210 297"
   version="1.1"
   id="svg8"
   inkscape:version="0.92.4 5da689c313, 2019-01-14"
   sodipodi:docname="graduation_cap_logo.svg">
  <defs
     id="defs2" />
  <sodipodi:namedview
     id="base"
     pagecolor="#ffffff"
     bordercolor="#666666"
     borderopacity="1.0"
     inkscape:pageopacity="0.0"
     inkscape:pageshadow="2"
     inkscape:zoom="1.0978516"
     inkscape:cx="-2.2469733"
     inkscape:cy="551.0243"
     inkscape:document-units="px"
     inkscape:current-layer="layer1"
     showgrid="false"
     showborder="false"
     inkscape:window-width="1920"
     inkscape:window-height="1054"
     inkscape:window-x="0"
     inkscape:window-y="0"
     inkscape:window-maximized="1" />
  <metadata
     id="metadata5">
    <rdf:RDF>
      <cc:Work
         rdf:about="">
        <dc:format>image/svg+xml</dc:format>
        <dc:type
           rdf:resource="http://purl.org/dc/dcmitype/StillImage" />
        <dc:title />
      </cc:Work>
    </rdf:RDF>
  </metadata>
  <g
     inkscape:label="Layer 1"
     inkscape:groupmode="layer"
     id="layer1">
    <g
       id="g907">
      <path
         id="path829"
         d="m -5.1815957,132.45238 a 43.399223,25.425808 0 0 0 -29.2194043,6.66367 43.399223,25.425808 0 0 0 -0.414962,0.21343 v 9.91205 a 48.05659,15.252002 0 0 1 26.5291296,-2.54609 48.05659,15.252002 0 0 1 32.7396034,4.11293 v -11.46184 a 43.399223,25.425808 0 0 0 -0.422713,-0.23048 43.399223,25.425808 0 0 0 -29.2116537,-6.66367 z"
         style="fill:#2a858b;fill-opacity:1;stroke:none;stroke-width:0.19733076;stroke-opacity:1"
         inkscape:connector-curvature="0" />
      <path
         id="path836"
         d="m -8.2868324,149.76295 a 48.05659,15.252002 0 0 0 -48.0564976,15.25178 48.05659,15.252002 0 0 0 10.67325,9.57513 48.05659,15.252002 0 0 1 -2.152322,-4.46278 A 48.05659,15.252002 0 0 1 0.23409423,154.8753 48.05659,15.252002 0 0 1 37.618892,160.55299 48.05659,15.252002 0 0 0 -8.2868324,149.76295 Z"
         style="fill:#2a858b;fill-opacity:1;stroke:none;stroke-width:0.27242452;stroke-opacity:1"
         inkscape:connector-curvature="0" />
      <path
         inkscape:connector-curvature="0"
         style="fill:#39adb4;fill-opacity:1;stroke:none;stroke-width:0.19732445;stroke-opacity:1"
         d="m -5.5158453,157.95658 a 34.808688,11.047438 0 0 0 -34.8086207,11.04728 34.808688,11.047438 0 0 0 7.730923,6.93552 34.808688,11.047438 0 0 1 -1.558985,-3.23251 34.808688,11.047438 0 0 1 34.80862016,-11.04727 34.808688,11.047438 0 0 1 27.07881984,4.1125 34.808688,11.047438 0 0 0 -33.2507573,-7.81552 z"
         id="path869" />
      <path
         id="rect815"
         d="m -3.8560954,91.498289 -64.7567706,38.608501 22.701975,13.53509 v -9.74721 a 59.647745,34.945145 0 0 1 0.569989,-0.29352 59.647745,34.945145 0 0 1 40.1593063,-9.1581 59.647745,34.945145 0 0 1 40.1484527,9.1581 59.647745,34.945145 0 0 1 0.580845,0.31677 v 11.30474 L 60.90119,130.10679 Z"
         style="fill:#39adb4;fill-opacity:1;stroke:none;stroke-width:0.20429616;stroke-opacity:1"
         inkscape:connector-curvature="0" />
      <rect
         y="130.1068"
         x="-68.44429"
         height="18.316076"
         width="3.6150153"
         id="rect871"
         style="fill:#39adb4;fill-opacity:1;stroke:none;stroke-width:0.23918161;stroke-opacity:1" />
      <circle
         r="2.4100101"
         cy="147.69987"
         cx="-66.63678"
         id="path875"
         style="fill:#39adb4;fill-opacity:1;stroke:none;stroke-width:0.26458332;stroke-opacity:1" />
    </g>
    <flowRoot
       xml:space="preserve"
       id="flowRoot827"
       style="font-style:normal;font-weight:normal;font-size:40px;line-height:1.25;font-family:sans-serif;letter-spacing:0px;word-spacing:0px;fill:#39adb4;fill-opacity:1;stroke:none;"
       transform="matrix(0.26458333,0,0,0.26458333,-12.220709,-6.9890293)"><flowRegion
         id="flowRegion829"
         style="fill:#39adb4;fill-opacity:1;"><rect
           id="rect831"
           width="603.9068"
           height="168.51096"
           x="-283.28055"
           y="726.29126"
           style="fill:#39adb4;fill-opacity:1;" /></flowRegion><flowPara
         id="flowPara833"
         style="font-style:normal;font-variant:normal;font-weight:normal;font-stretch:normal;font-size:93.33333588px;font-family:Pacifico;-inkscape-font-specification:'Pacifico, Normal';font-variant-ligatures:normal;font-variant-caps:normal;font-variant-numeric:normal;font-feature-settings:normal;text-align:center;writing-mode:lr-tb;text-anchor:middle;fill:#39adb4;fill-opacity:1;">Terminal</flowPara></flowRoot>  </g>
</svg>
