<?xml version="1.0" encoding="UTF-8" standalone="no"?>
<!-- Created with Inkscape (http://www.inkscape.org/) -->

<svg
   xmlns:dc="http://purl.org/dc/elements/1.1/"
   xmlns:cc="http://creativecommons.org/ns#"
   xmlns:rdf="http://www.w3.org/1999/02/22-rdf-syntax-ns#"
   xmlns:svg="http://www.w3.org/2000/svg"
   xmlns="http://www.w3.org/2000/svg"
   xmlns:sodipodi="http://sodipodi.sourceforge.net/DTD/sodipodi-0.dtd"
   xmlns:inkscape="http://www.inkscape.org/namespaces/inkscape"
   version="1.1"
   id="svg2"
   xml:space="preserve"
   width="816"
   height="1056"
   viewBox="0 0 816 1056"
   sodipodi:docname="letter-t-logo-design-blue.svg"
   inkscape:version="0.92.4 5da689c313, 2019-01-14"><metadata
     id="metadata8"><rdf:RDF><cc:Work
         rdf:about=""><dc:format>image/svg+xml</dc:format><dc:type
           rdf:resource="http://purl.org/dc/dcmitype/StillImage" /><dc:title></dc:title></cc:Work></rdf:RDF></metadata><defs
     id="defs6"><clipPath
       clipPathUnits="userSpaceOnUse"
       id="clipPath18"><path
         d="m 293.135,492.353 c -25.803,-2.227 -47.813,3.76 -63.062,24.387 v 0 c 14.858,-8.854 35.801,-6.217 55.705,-3.581 v 0 c 30.291,4.013 58.181,8.025 58.579,-28.458 v 0 c 17.705,51.919 -24.32,48.198 -68.456,44.478 v 0 c -27.16,-2.289 -55.12,-4.579 -70.453,6.098 v 0 c 12.03,-32.002 36.344,-51.368 87.687,-42.924"
         id="path16"
         inkscape:connector-curvature="0" /></clipPath><linearGradient
       x1="0"
       y1="0"
       x2="1"
       y2="0"
       gradientUnits="userSpaceOnUse"
       gradientTransform="matrix(118.86757,-65.889328,-65.889328,-118.86755,223.53613,546.91699)"
       spreadMethod="pad"
       id="linearGradient28"><stop
         style="stop-opacity:1;stop-color:#0994dc"
         offset="0"
         id="stop24" /><stop
         style="stop-opacity:1;stop-color:#2354ac"
         offset="1"
         id="stop26" /></linearGradient><clipPath
       clipPathUnits="userSpaceOnUse"
       id="clipPath38"><path
         d="m 266.797,469.137 c -1.787,0.035 -3.507,0.07 -4.531,-0.031 v 0 c -10.289,-56.704 25.861,-111.118 96.472,-94.321 v 0 c -59.169,-6.28 -97.023,21.456 -86.196,94.481 v 0 c -1.216,-0.218 -3.532,-0.173 -5.745,-0.129"
         id="path36"
         inkscape:connector-curvature="0" /></clipPath><linearGradient
       x1="0"
       y1="0"
       x2="1"
       y2="0"
       gradientUnits="userSpaceOnUse"
       gradientTransform="matrix(160.95668,-178.76045,-178.76045,-160.95668,244.07812,468.29395)"
       spreadMethod="pad"
       id="linearGradient48"><stop
         style="stop-opacity:1;stop-color:#598134"
         offset="0"
         id="stop44" /><stop
         style="stop-opacity:1;stop-color:#99d420"
         offset="1"
         id="stop46" /></linearGradient><clipPath
       clipPathUnits="userSpaceOnUse"
       id="clipPath58"><path
         d="m 276.926,472.066 c -11.035,-74.424 26.295,-102.363 87.502,-94.619 v 0 c -59.818,-0.607 -78.444,44.798 -69.957,107.069 v 0 c -29.847,-3.56 -58.149,2.153 -77.531,15.27 v 0 c 11.979,-19.381 32.031,-28.496 59.986,-27.72"
         id="path56"
         inkscape:connector-curvature="0" /></clipPath><linearGradient
       x1="0"
       y1="0"
       x2="1"
       y2="0"
       gradientUnits="userSpaceOnUse"
       gradientTransform="matrix(154.92653,-198.29689,-198.29689,-154.92653,257.85303,485.16357)"
       spreadMethod="pad"
       id="linearGradient68"><stop
         style="stop-opacity:1;stop-color:#598134"
         offset="0"
         id="stop64" /><stop
         style="stop-opacity:1;stop-color:#99d420"
         offset="1"
         id="stop66" /></linearGradient><clipPath
       clipPathUnits="userSpaceOnUse"
       id="clipPath78"><path
         d="M 0,792 H 612 V 0 H 0 Z"
         id="path76"
         inkscape:connector-curvature="0" /></clipPath></defs><sodipodi:namedview
     pagecolor="#ffffff"
     bordercolor="#666666"
     borderopacity="1"
     objecttolerance="10"
     gridtolerance="10"
     guidetolerance="10"
     inkscape:pageopacity="0"
     inkscape:pageshadow="2"
     inkscape:window-width="1920"
     inkscape:window-height="1054"
     id="namedview4"
     showgrid="false"
     inkscape:zoom="1.4020182"
     inkscape:cx="379.40079"
     inkscape:cy="563.44468"
     inkscape:window-x="0"
     inkscape:window-y="0"
     inkscape:window-maximized="1"
     inkscape:current-layer="g10" /><g
     id="g10"
     inkscape:groupmode="layer"
     inkscape:label="letter-t-logo-design-blue"
     transform="matrix(1.3333333,0,0,-1.3333333,0,1056)"><g
       id="g952"
       inkscape:export-filename="/home/gh05tm4n/Documents/Terminal/frontend/app/src/main/res/drawable/ic_app_launcher_logo.png"
       inkscape:export-xdpi="33.650002"
       inkscape:export-ydpi="33.650002"><circle
         transform="scale(1,-1)"
         r="136.94545"
         cy="-441.32809"
         cx="289.40424"
         id="path910"
         style="fill:#f1304d;fill-opacity:1;stroke:none;stroke-width:31.8936882;stroke-linecap:round;stroke-linejoin:round;stroke-miterlimit:4;stroke-dasharray:none;stroke-dashoffset:0;stroke-opacity:1" /><g
         transform="translate(4.4662358,-11.620197)"
         id="g14"
         clip-path="url(#clipPath18)"
         style="fill:#ffffff"><g
           id="g20"
           style="fill:#ffffff"><g
             id="g22"
             style="fill:#ffffff"><path
               d="m 293.135,492.353 c -25.803,-2.227 -47.813,3.76 -63.062,24.387 v 0 c 14.858,-8.854 35.801,-6.217 55.705,-3.581 v 0 c 30.291,4.013 58.181,8.025 58.579,-28.458 v 0 c 17.705,51.919 -24.32,48.198 -68.456,44.478 v 0 c -27.16,-2.289 -55.12,-4.579 -70.453,6.098 v 0 c 12.03,-32.002 36.344,-51.368 87.687,-42.924"
               style="fill:#ffffff;stroke:none"
               id="path30"
               inkscape:connector-curvature="0" /></g></g></g><g
         transform="translate(4.4662358,-11.620197)"
         id="g34"
         clip-path="url(#clipPath38)"
         style="fill:#ffffff"><g
           id="g40"
           style="fill:#ffffff"><g
             id="g42"
             style="fill:#ffffff"><path
               d="m 266.797,469.137 c -1.787,0.035 -3.507,0.07 -4.531,-0.031 v 0 c -10.289,-56.704 25.861,-111.118 96.472,-94.321 v 0 c -59.169,-6.28 -97.023,21.456 -86.196,94.481 v 0 c -1.216,-0.218 -3.532,-0.173 -5.745,-0.129"
               style="fill:#ffffff;stroke:none"
               id="path50"
               inkscape:connector-curvature="0" /></g></g></g><g
         transform="translate(4.4662358,-11.620197)"
         id="g54"
         clip-path="url(#clipPath58)"
         style="fill:#ffffff;fill-opacity:1"><g
           id="g60"
           style="fill:#ffffff;fill-opacity:1"><g
             id="g62"
             style="fill:#ffffff;fill-opacity:1"><path
               d="m 276.926,472.066 c -11.035,-74.424 26.295,-102.363 87.502,-94.619 v 0 c -59.818,-0.607 -78.444,44.798 -69.957,107.069 v 0 c -29.847,-3.56 -58.149,2.153 -77.531,15.27 v 0 c 11.979,-19.381 32.031,-28.496 59.986,-27.72"
               style="fill:#ffffff;fill-opacity:1;stroke:none"
               id="path70"
               inkscape:connector-curvature="0" /></g></g></g></g></g></svg>