<?xml version="1.0" encoding="UTF-8" standalone="no"?>
<!-- Created with Inkscape (http://www.inkscape.org/) -->

<svg
   xmlns:dc="http://purl.org/dc/elements/1.1/"
   xmlns:cc="http://creativecommons.org/ns#"
   xmlns:rdf="http://www.w3.org/1999/02/22-rdf-syntax-ns#"
   xmlns:svg="http://www.w3.org/2000/svg"
   xmlns="http://www.w3.org/2000/svg"
   xmlns:sodipodi="http://sodipodi.sourceforge.net/DTD/sodipodi-0.dtd"
   xmlns:inkscape="http://www.inkscape.org/namespaces/inkscape"
   version="1.1"
   id="svg2"
   xml:space="preserve"
   width="1066.6667"
   height="1066.6667"
   viewBox="0 0 1066.6667 1066.6667"
   sodipodi:docname="lock.svg"
   inkscape:version="0.92.4 5da689c313, 2019-01-14"><metadata
     id="metadata8"><rdf:RDF><cc:Work
         rdf:about=""><dc:format>image/svg+xml</dc:format><dc:type
           rdf:resource="http://purl.org/dc/dcmitype/StillImage" /><dc:title></dc:title></cc:Work></rdf:RDF></metadata><defs
     id="defs6"><clipPath
       clipPathUnits="userSpaceOnUse"
       id="clipPath22"><path
         d="M 0,800 H 800 V 0 H 0 Z"
         id="path20"
         inkscape:connector-curvature="0" /></clipPath><clipPath
       clipPathUnits="userSpaceOnUse"
       id="clipPath4328"><path
         d="m 670.975,116.677 h 83.421 V 33.2539 h -83.421 z"
         id="path4326"
         inkscape:connector-curvature="0" /></clipPath></defs><sodipodi:namedview
     pagecolor="#ffffff"
     bordercolor="#666666"
     borderopacity="1"
     objecttolerance="10"
     gridtolerance="10"
     guidetolerance="10"
     inkscape:pageopacity="0"
     inkscape:pageshadow="2"
     inkscape:window-width="1920"
     inkscape:window-height="1054"
     id="namedview4"
     showgrid="false"
     showborder="false"
     inkscape:zoom="0.69399897"
     inkscape:cx="533.33337"
     inkscape:cy="594.68184"
     inkscape:window-x="0"
     inkscape:window-y="0"
     inkscape:window-maximized="1"
     inkscape:current-layer="g10" /><g
     id="g10"
     inkscape:groupmode="layer"
     inkscape:label="PASSWORD1"
     transform="matrix(1.3333333,0,0,-1.3333333,0,1066.6667)"><path
       inkscape:connector-curvature="0"
       id="path4344"
       style="fill:#f1304d;fill-opacity:1;fill-rule:nonzero;stroke:none;stroke-width:3.75000009;stroke-opacity:1;stroke-miterlimit:4;stroke-dasharray:none;stroke-linecap:round"
       d="m 455.75376,284.82368 v -39.95579 c 0,-9.33078 -9.56143,-16.8886 -21.37576,-16.8886 -11.79337,0 -21.38043,7.55782 -21.38043,16.8886 v 39.95579 c -16.49486,7.98184 -27.94808,24.81452 -27.94808,44.42431 0,27.23051 22.08402,49.3122 49.32851,49.3122 27.26545,0 49.34947,-22.08169 49.34947,-49.3122 0,-19.60979 -11.45322,-36.44247 -27.97371,-44.42431 m 222.80651,103.69866 v 59.60285 c 0,31.82252 -27.33302,57.64351 -61.031,57.64351 H 251.24769 c -33.72361,0 -61.031,-25.82099 -61.031,-57.64351 V 183.06107 c 0,-31.79223 27.30739,-57.58526 61.031,-57.58526 h 366.28158 c 33.69798,0 61.031,25.79303 61.031,57.58526 v 18.12571 h -79.88594 v 31.8994 h 79.88594 v 43.84652 h -79.88594 v 31.8761 h 79.88594 v 47.79784 h -79.88594 v 31.9157 z"
       inkscape:export-filename="/home/gh05tm4n/Documents/Terminal/frontend/app/src/main/res/drawable/lock.png"
       inkscape:export-xdpi="89.529999"
       inkscape:export-ydpi="89.529999" /><path
       inkscape:connector-curvature="0"
       id="path4348"
       style="fill:#f1304d;fill-opacity:1;fill-rule:nonzero;stroke:none;stroke-width:3.75000009;stroke-opacity:1;stroke-miterlimit:4;stroke-dasharray:none;stroke-linecap:round"
       d="m 307.22796,587.00941 c 0,53.08645 43.03344,96.11056 96.11289,96.11056 h 62.09339 c 53.07713,0 96.1059,-43.02411 96.1059,-96.11056 V 519.7043 h 68.1485 v 87.65577 c 0,72.67061 -58.87363,131.56987 -131.53725,131.56987 H 370.60041 c -72.61703,0 -131.51162,-58.89926 -131.51162,-131.56987 V 519.7043 h 68.13917 z"
       inkscape:export-filename="/home/gh05tm4n/Documents/Terminal/frontend/app/src/main/res/drawable/lock.png"
       inkscape:export-xdpi="89.529999"
       inkscape:export-ydpi="89.529999" /></g></svg>