<?xml version="1.0" encoding="UTF-8" standalone="no"?>
<!-- Created with Inkscape (http://www.inkscape.org/) -->

<svg
   xmlns:dc="http://purl.org/dc/elements/1.1/"
   xmlns:cc="http://creativecommons.org/ns#"
   xmlns:rdf="http://www.w3.org/1999/02/22-rdf-syntax-ns#"
   xmlns:svg="http://www.w3.org/2000/svg"
   xmlns="http://www.w3.org/2000/svg"
   xmlns:sodipodi="http://sodipodi.sourceforge.net/DTD/sodipodi-0.dtd"
   xmlns:inkscape="http://www.inkscape.org/namespaces/inkscape"
   version="1.1"
   id="svg2"
   xml:space="preserve"
   width="1600"
   height="1600"
   viewBox="0 0 1600 1600"
   sodipodi:docname="logo_t.svg"
   inkscape:version="0.92.4 5da689c313, 2019-01-14"><metadata
     id="metadata8"><rdf:RDF><cc:Work
         rdf:about=""><dc:format>image/svg+xml</dc:format><dc:type
           rdf:resource="http://purl.org/dc/dcmitype/StillImage" /><dc:title></dc:title></cc:Work></rdf:RDF></metadata><defs
     id="defs6" /><sodipodi:namedview
     pagecolor="#ffffff"
     bordercolor="#666666"
     borderopacity="1"
     objecttolerance="10"
     gridtolerance="10"
     guidetolerance="10"
     inkscape:pageopacity="0"
     inkscape:pageshadow="2"
     inkscape:window-width="1920"
     inkscape:window-height="1054"
     id="namedview4"
     showgrid="false"
     showborder="false"
     inkscape:zoom="0.32715428"
     inkscape:cx="473.57735"
     inkscape:cy="359.36278"
     inkscape:window-x="0"
     inkscape:window-y="0"
     inkscape:window-maximized="1"
     inkscape:current-layer="g10" /><g
     id="g10"
     inkscape:groupmode="layer"
     inkscape:label="ink_ext_XXXXXX"
     transform="matrix(1.3333333,0,0,-1.3333333,0,1600)"><path
       inkscape:connector-curvature="0"
       id="path22"
       style="fill:#f04624;fill-opacity:1;fill-rule:nonzero;stroke:none;stroke-width:0.231436"
       d="m -661.20533,-368.47944 c -294.79391,32.23209 -475.58247,341.874933 -358.13797,614.22417 69.72013,161.89179 228.8694,268.02371 406.5891,268.02371 244.01453,0 442.46163,-198.56977 442.46163,-442.459327 0,-258.851903 -223.80091,-468.403303 -490.91276,-439.788553 z m 48.45113,947.86924 c -280.22964,0 -508.0784,-228.10794 -508.0784,-508.080687 0,-284.849103 235.89579,-516.261953 523.59618,-507.823793 273.51568,8.25995 492.56285,233.04447 492.56285,507.823793 0,280.157897 -227.92274,508.080687 -508.08063,508.080687" /><g
       id="g922"
       transform="translate(-1006.6657,371.21811)"><path
         d="M 344.967,437.155 H 311.926 L 290.25,328.695 h -25.375 l 21.675,108.46 h -32.864 l 3.964,19.825 h 91.282 l -3.965,-19.825"
         style="fill:#f58614;fill-opacity:1;fill-rule:nonzero;stroke:none;stroke-width:0.1"
         id="path24"
         inkscape:connector-curvature="0" /><path
         d="m 378.447,405.967 c -3.994,0 -7.474,-1.838 -10.44,-5.508 -2.967,-3.67 -5.184,-8.444 -6.652,-14.317 l 0.176,-0.441 h 26.961 l 0.353,2.292 c 0.881,5.695 0.513,10.116 -1.102,13.26 -1.616,3.14 -4.714,4.714 -9.296,4.714 z M 368.14,326.845 c -12.512,0 -22.028,4.431 -28.548,13.302 -6.521,8.871 -8.664,20.032 -6.432,33.483 l 0.529,3.524 c 2.349,14.744 7.827,26.549 16.432,35.42 8.604,8.869 19.106,13.275 31.499,13.218 11.689,0 20.322,-3.922 25.903,-11.764 5.581,-7.841 7.343,-18.282 5.289,-31.323 l -2.205,-14.011 h -52.688 c -0.471,-6.728 0.616,-12.081 3.259,-16.059 2.644,-3.98 6.902,-5.966 12.776,-5.966 4.935,0 9.31,0.585 13.129,1.76 3.817,1.175 7.959,2.967 12.424,5.376 l 4.316,-15.899 c -4.052,-3.127 -9.207,-5.755 -15.463,-7.877 -6.256,-2.124 -12.996,-3.184 -20.22,-3.184"
         style="fill:#f58614;fill-opacity:1;fill-rule:nonzero;stroke:none;stroke-width:0.1"
         id="path26"
         inkscape:connector-curvature="0" /><path
         d="m 480.038,401.296 -10.133,0.266 c -3.113,0 -5.889,-0.75 -8.326,-2.249 -2.438,-1.5 -4.51,-3.626 -6.211,-6.387 l -12.865,-64.231 h -25.287 l 19.031,95.333 h 23.614 l -1.41,-12.246 0.44,-0.264 c 2.644,4.519 5.772,8.031 9.384,10.529 3.612,2.494 7.533,3.745 11.763,3.745 1.174,0 2.467,-0.105 3.877,-0.31 1.41,-0.208 2.556,-0.455 3.437,-0.748 l -7.314,-23.438"
         style="fill:#f58614;fill-opacity:1;fill-rule:nonzero;stroke:none;stroke-width:0.1"
         id="path28"
         inkscape:connector-curvature="0" /><path
         d="m 513.256,345.875 c 3.053,0 6.123,0.808 9.207,2.422 3.083,1.616 5.651,3.628 7.709,6.036 l 3.26,16.126 h -11.454 c -4.348,0 -8.048,-1.382 -11.102,-4.142 -3.055,-2.763 -4.934,-6.051 -5.64,-9.867 -0.704,-3.409 -0.352,-6.025 1.058,-7.844 1.41,-1.819 3.73,-2.731 6.962,-2.731 z m 16.035,-17.18 c -0.353,1.76 -0.617,3.581 -0.793,5.462 -0.177,1.878 -0.264,3.788 -0.264,5.725 -3.467,-3.873 -7.373,-7.018 -11.719,-9.427 -4.347,-2.406 -9.018,-3.61 -14.009,-3.61 -8.106,0 -14.361,2.641 -18.768,7.928 -4.405,5.287 -5.726,12.218 -3.965,20.794 1.997,9.926 6.726,17.315 14.186,22.16 7.459,4.844 17.768,7.269 30.927,7.269 h 11.454 l 1.498,7.579 c 0.939,4.872 0.645,8.501 -0.881,10.878 -1.528,2.382 -4.349,3.57 -8.459,3.57 -3.407,0 -6.345,-1.03 -8.811,-3.085 -2.466,-2.054 -4.024,-4.844 -4.669,-8.37 l -24.407,0.089 -0.175,0.529 c 1.41,8.635 6.108,15.728 14.096,21.278 7.989,5.551 17.768,8.328 29.341,8.328 10.044,0 17.987,-2.94 23.832,-8.812 5.845,-5.874 7.74,-14.069 5.684,-24.583 l -7.93,-39.386 c -0.999,-4.816 -1.541,-9.105 -1.63,-12.864 -0.087,-3.757 0.191,-7.579 0.837,-11.452 h -25.375"
         style="fill:#f58614;fill-opacity:1;fill-rule:nonzero;stroke:none;stroke-width:0.1"
         id="path30"
         inkscape:connector-curvature="0" /><path
         d="m 669.738,443.325 h -41.233 v -114.63 h -17.357 v 114.63 h -41.15 v 13.655 h 99.74 v -13.655"
         style="fill:#151a21;fill-opacity:1;fill-rule:nonzero;stroke:none;stroke-width:0.1"
         id="path32"
         inkscape:connector-curvature="0" /><path
         d="m 714.409,412.135 c -5.815,0 -10.778,-2.447 -14.888,-7.334 -4.115,-4.888 -6.641,-11.02 -7.581,-18.396 l 0.177,-0.44 h 43.968 v 2.281 c 0,6.792 -1.823,12.472 -5.461,17.039 -3.643,4.565 -9.051,6.85 -16.215,6.85 z m 2.646,-85.29 c -13.28,0 -23.835,4.418 -31.679,13.259 -7.839,8.84 -11.759,20.311 -11.759,34.406 v 3.879 c 0,13.569 4.038,24.861 12.112,33.877 8.076,9.015 17.639,13.526 28.68,13.526 12.866,0 22.583,-3.879 29.166,-11.632 6.578,-7.754 9.868,-18.093 9.868,-31.014 V 372.31 h -61.851 l -0.269,-0.441 c 0.178,-9.139 2.5,-16.651 6.964,-22.537 4.464,-5.889 10.72,-8.833 18.768,-8.833 5.871,0 11.024,0.839 15.461,2.514 4.436,1.674 8.27,3.978 11.5,6.916 l 6.781,-11.29 c -3.406,-3.369 -7.897,-6.178 -13.477,-8.424 -5.585,-2.247 -12.336,-3.37 -20.265,-3.37"
         style="fill:#151a21;fill-opacity:1;fill-rule:nonzero;stroke:none;stroke-width:0.1"
         id="path34"
         inkscape:connector-curvature="0" /><path
         d="m 811.683,340.499 c 5.756,0 10.82,1.778 15.198,5.331 4.378,3.554 6.564,7.916 6.564,13.085 h 15.597 l 0.177,-0.528 c 0.29,-8.225 -3.367,-15.537 -10.97,-21.939 -7.607,-6.403 -16.463,-9.603 -26.566,-9.603 -13.864,0 -24.465,4.522 -31.81,13.568 -7.34,9.046 -11.011,20.409 -11.011,34.097 v 3.702 c 0,13.569 3.684,24.892 11.056,33.965 7.372,9.076 17.96,13.615 31.765,13.615 11.161,0 20.278,-3.292 27.355,-9.87 7.077,-6.58 10.503,-14.655 10.268,-24.23 l -0.178,-0.528 h -15.683 c 0,5.815 -2.055,10.763 -6.165,14.846 -4.115,4.082 -9.314,6.125 -15.597,6.125 -9.105,0 -15.611,-3.272 -19.517,-9.814 -3.905,-6.541 -5.86,-14.564 -5.86,-24.069 v -3.695 c 0,-9.738 1.941,-17.849 5.815,-24.331 3.879,-6.483 10.398,-9.727 19.562,-9.727"
         style="fill:#151a21;fill-opacity:1;fill-rule:nonzero;stroke:none;stroke-width:0.1"
         id="path36"
         inkscape:connector-curvature="0" /><path
         d="m 886.046,411.252 c 3.29,4.582 7.327,8.152 12.118,10.706 4.785,2.555 10.089,3.834 15.9,3.834 10.162,0 18.079,-3.056 23.749,-9.164 5.666,-6.111 8.501,-15.506 8.501,-28.195 v -59.738 h -17.356 v 59.914 c 0,7.871 -1.692,13.685 -5.067,17.444 -3.38,3.761 -8.416,5.638 -15.113,5.638 -4.817,0 -9.176,-1.129 -13.083,-3.391 -3.905,-2.261 -7.122,-5.329 -9.649,-9.206 v -70.399 h -17.357 v 137.45 h 17.357 v -54.893"
         style="fill:#151a21;fill-opacity:1;fill-rule:nonzero;stroke:none;stroke-width:0.1"
         id="path38"
         inkscape:connector-curvature="0" /><path
         d="m 338.936,281.969 h 10.486 c 2.795,0.066 5.206,0.856 7.227,2.373 2.021,1.514 3.312,3.671 3.872,6.469 0.624,3.161 0.194,5.441 -1.291,6.84 -1.484,1.398 -4.012,2.097 -7.582,2.097 h -9.13 z m -0.646,-3.289 -3.872,-19.328 h 11.455 c 2.989,0 5.614,0.862 7.872,2.587 2.259,1.727 3.699,4.102 4.323,7.123 0.581,2.981 0.232,5.328 -1.047,7.042 -1.281,1.718 -3.513,2.576 -6.695,2.576 z m -8.227,-22.619 9.389,46.977 h 12.841 c 4.259,0 7.519,-1.05 9.777,-3.147 2.259,-2.099 2.99,-5.17 2.194,-9.216 -0.517,-2.562 -1.58,-4.71 -3.195,-6.443 -1.612,-1.733 -3.581,-2.921 -5.904,-3.565 2.56,-0.538 4.447,-1.888 5.663,-4.048 1.214,-2.161 1.542,-4.661 0.985,-7.498 -0.905,-4.473 -2.803,-7.767 -5.697,-9.886 -2.892,-2.117 -6.522,-3.174 -10.888,-3.174 h -15.165"
         style="fill:#151a21;fill-opacity:1;fill-rule:nonzero;stroke:none;stroke-width:0.1"
         id="path40"
         inkscape:connector-curvature="0" /><path
         d="m 395.716,256.061 0.773,5.357 c -1.418,-1.983 -3.106,-3.482 -5.064,-4.503 -1.958,-1.022 -4.141,-1.53 -6.55,-1.53 -3.227,0 -5.614,1.265 -7.163,3.804 -1.55,2.538 -1.797,6.389 -0.741,11.552 l 4.032,20.23 h 3.743 l -4.033,-20.335 c -0.926,-4.55 -0.91,-7.68 0.047,-9.391 0.958,-1.714 2.705,-2.572 5.243,-2.572 2.518,0 4.739,0.685 6.664,2.054 1.924,1.367 3.468,3.205 4.63,5.513 l 4.936,24.731 h 3.743 l -6.969,-34.91 h -3.291"
         style="fill:#151a21;fill-opacity:1;fill-rule:nonzero;stroke:none;stroke-width:0.1"
         id="path42"
         inkscape:connector-curvature="0" /><path
         d="m 436.687,264.952 c 0.257,1.693 -0.128,3.137 -1.163,4.327 -1.031,1.191 -3.108,2.174 -6.226,2.945 -3.742,0.905 -6.432,2.098 -8.068,3.584 -1.633,1.483 -2.225,3.579 -1.773,6.29 0.43,2.774 1.833,5.056 4.21,6.841 2.377,1.785 5.309,2.679 8.793,2.679 3.527,0 6.243,-0.985 8.146,-2.953 1.905,-1.969 2.577,-4.394 2.017,-7.277 l -0.064,-0.193 h -3.485 c 0.301,1.981 -0.178,3.663 -1.435,5.049 -1.259,1.386 -3.158,2.08 -5.696,2.08 -2.473,0 -4.49,-0.615 -6.049,-1.846 -1.56,-1.23 -2.458,-2.636 -2.694,-4.219 -0.28,-1.65 0.053,-2.988 1,-4.015 0.946,-1.025 3.043,-1.937 6.291,-2.726 3.722,-0.93 6.416,-2.196 8.083,-3.807 1.666,-1.606 2.286,-3.792 1.856,-6.553 -0.495,-3.02 -1.969,-5.405 -4.421,-7.153 -2.452,-1.75 -5.506,-2.62 -9.162,-2.62 -3.787,0 -6.686,1.02 -8.698,3.061 -2.01,2.046 -2.736,4.441 -2.177,7.195 l 0.065,0.196 h 3.452 c -0.258,-2.505 0.398,-4.325 1.969,-5.461 1.569,-1.136 3.537,-1.703 5.904,-1.703 2.452,0 4.549,0.617 6.291,1.851 1.743,1.235 2.754,2.708 3.034,4.428"
         style="fill:#151a21;fill-opacity:1;fill-rule:nonzero;stroke:none;stroke-width:0.1"
         id="path44"
         inkscape:connector-curvature="0" /><path
         d="m 466.782,300.972 h -3.709 l 1.097,5.422 h 3.711 z m -8.969,-44.911 h -3.709 l 6.968,34.91 h 3.711 l -6.97,-34.91"
         style="fill:#151a21;fill-opacity:1;fill-rule:nonzero;stroke:none;stroke-width:0.1"
         id="path46"
         inkscape:connector-curvature="0" /><path
         d="m 484.071,285.229 c 1.442,2.065 3.151,3.644 5.131,4.742 1.979,1.097 4.183,1.647 6.614,1.647 3.292,0 5.679,-1.18 7.163,-3.534 1.484,-2.355 1.753,-5.943 0.807,-10.761 l -4.26,-21.262 h -3.742 l 4.26,21.271 c 0.838,4.292 0.746,7.195 -0.274,8.715 -1.023,1.52 -2.846,2.277 -5.469,2.277 -2.324,0 -4.448,-0.753 -6.373,-2.262 -1.926,-1.508 -3.513,-3.482 -4.759,-5.917 l -4.808,-24.084 h -3.743 l 6.97,34.91 h 3.323 l -0.84,-5.742"
         style="fill:#151a21;fill-opacity:1;fill-rule:nonzero;stroke:none;stroke-width:0.1"
         id="path48"
         inkscape:connector-curvature="0" /><path
         d="m 533.236,288.324 c -2.516,0 -4.855,-1.095 -7.017,-3.288 -2.162,-2.196 -3.661,-4.919 -4.5,-8.164 l 0.064,-0.192 h 18.713 l 0.161,0.966 c 0.495,3.161 0.098,5.734 -1.193,7.711 -1.29,1.979 -3.367,2.967 -6.228,2.967 z m -4.774,-32.939 c -3.937,0 -7.034,1.622 -9.293,4.87 -2.259,3.247 -2.989,7.323 -2.193,12.227 l 0.29,1.774 c 0.816,5.185 2.811,9.375 5.984,12.568 3.174,3.197 6.674,4.794 10.503,4.794 3.85,0 6.732,-1.37 8.647,-4.105 1.915,-2.739 2.517,-6.348 1.807,-10.829 l -0.516,-3.298 h -22.843 l -0.13,-0.93 c -0.646,-4.07 -0.222,-7.387 1.275,-9.944 1.494,-2.56 3.822,-3.839 6.986,-3.839 2.128,0 4.059,0.336 5.792,1.007 1.73,0.672 3.252,1.618 4.564,2.834 l 1.161,-2.648 c -1.441,-1.375 -3.162,-2.469 -5.163,-3.275 -1.999,-0.805 -4.289,-1.206 -6.871,-1.206"
         style="fill:#151a21;fill-opacity:1;fill-rule:nonzero;stroke:none;stroke-width:0.1"
         id="path50"
         inkscape:connector-curvature="0" /><path
         d="m 575.79,264.952 c 0.257,1.693 -0.13,3.137 -1.163,4.327 -1.032,1.191 -3.108,2.174 -6.227,2.945 -3.742,0.905 -6.431,2.098 -8.067,3.584 -1.634,1.483 -2.226,3.579 -1.773,6.29 0.429,2.774 1.833,5.056 4.21,6.841 2.376,1.785 5.307,2.679 8.793,2.679 3.527,0 6.244,-0.985 8.147,-2.953 1.903,-1.969 2.575,-4.394 2.016,-7.277 l -0.065,-0.193 h -3.484 c 0.301,1.981 -0.178,3.663 -1.436,5.049 -1.259,1.386 -3.157,2.08 -5.695,2.08 -2.474,0 -4.49,-0.615 -6.05,-1.846 -1.559,-1.23 -2.458,-2.636 -2.693,-4.219 -0.281,-1.65 0.053,-2.988 1,-4.015 0.946,-1.025 3.043,-1.937 6.291,-2.726 3.721,-0.93 6.416,-2.196 8.083,-3.807 1.666,-1.606 2.285,-3.792 1.855,-6.553 -0.495,-3.02 -1.969,-5.405 -4.421,-7.153 -2.452,-1.75 -5.506,-2.62 -9.162,-2.62 -3.787,0 -6.684,1.02 -8.697,3.061 -2.011,2.046 -2.736,4.441 -2.177,7.195 l 0.064,0.196 h 3.453 c -0.258,-2.505 0.397,-4.325 1.969,-5.461 1.569,-1.136 3.537,-1.703 5.904,-1.703 2.452,0 4.549,0.617 6.291,1.851 1.743,1.235 2.754,2.708 3.034,4.428"
         style="fill:#151a21;fill-opacity:1;fill-rule:nonzero;stroke:none;stroke-width:0.1"
         id="path52"
         inkscape:connector-curvature="0" /><path
         d="m 614.079,264.952 c 0.259,1.693 -0.13,3.137 -1.161,4.327 -1.032,1.191 -3.107,2.174 -6.227,2.945 -3.743,0.905 -6.43,2.098 -8.066,3.584 -1.634,1.483 -2.226,3.579 -1.773,6.29 0.429,2.774 1.833,5.056 4.21,6.841 2.376,1.785 5.307,2.679 8.792,2.679 3.526,0 6.242,-0.985 8.147,-2.953 1.903,-1.969 2.575,-4.394 2.017,-7.277 l -0.066,-0.193 h -3.484 c 0.302,1.981 -0.177,3.663 -1.436,5.049 -1.26,1.386 -3.157,2.08 -5.696,2.08 -2.472,0 -4.488,-0.615 -6.05,-1.846 -1.557,-1.23 -2.456,-2.636 -2.691,-4.219 -0.281,-1.65 0.053,-2.988 0.999,-4.015 0.947,-1.025 3.043,-1.937 6.291,-2.726 3.721,-0.93 6.414,-2.196 8.081,-3.807 1.668,-1.606 2.287,-3.792 1.856,-6.553 -0.494,-3.02 -1.967,-5.405 -4.42,-7.153 -2.454,-1.75 -5.506,-2.62 -9.163,-2.62 -3.785,0 -6.682,1.02 -8.695,3.061 -2.011,2.046 -2.736,4.441 -2.177,7.195 l 0.064,0.196 h 3.453 c -0.258,-2.505 0.397,-4.325 1.969,-5.461 1.569,-1.136 3.536,-1.703 5.901,-1.703 2.452,0 4.55,0.617 6.293,1.851 1.742,1.235 2.754,2.708 3.032,4.428"
         style="fill:#151a21;fill-opacity:1;fill-rule:nonzero;stroke:none;stroke-width:0.1"
         id="path54"
         inkscape:connector-curvature="0" /><path
         d="m 681.275,266.309 c 0.58,2.876 0.165,5.11 -1.243,6.7 -1.409,1.588 -4.254,3.209 -8.534,4.863 -4.56,1.656 -7.818,3.538 -9.775,5.646 -1.958,2.107 -2.53,5.173 -1.711,9.196 0.71,3.527 2.457,6.244 5.242,8.147 2.785,1.903 6.136,2.856 10.051,2.856 4.302,0 7.664,-1.266 10.085,-3.793 2.418,-2.527 3.155,-5.943 2.209,-10.243 l -0.063,-0.161 h -3.518 c 0.666,3.311 0.144,5.959 -1.566,7.936 -1.711,1.979 -4.307,2.97 -7.792,2.97 -2.667,0 -5.049,-0.761 -7.147,-2.285 -2.096,-1.519 -3.351,-3.316 -3.758,-5.389 -0.604,-2.936 -0.255,-5.181 1.047,-6.732 1.302,-1.557 4.146,-3.173 8.536,-4.859 4.559,-1.672 7.847,-3.593 9.855,-5.762 2.013,-2.164 2.632,-5.189 1.857,-9.072 -0.732,-3.628 -2.56,-6.358 -5.486,-8.194 -2.925,-1.833 -6.485,-2.748 -10.678,-2.748 -4.26,0 -7.838,1.137 -10.73,3.418 -2.891,2.279 -3.812,5.795 -2.758,10.55 l 0.098,0.194 h 3.452 c -0.818,-4.053 -0.135,-6.879 2.049,-8.477 2.182,-1.598 5.025,-2.397 8.532,-2.397 2.754,0 5.293,0.747 7.616,2.239 2.322,1.492 3.699,3.291 4.13,5.397"
         style="fill:#f58614;fill-opacity:1;fill-rule:nonzero;stroke:none;stroke-width:0.1"
         id="path56"
         inkscape:connector-curvature="0" /><path
         d="m 701.016,256.061 h -3.711 l 10.066,50.333 h 3.712 l -10.067,-50.333"
         style="fill:#f58614;fill-opacity:1;fill-rule:nonzero;stroke:none;stroke-width:0.1"
         id="path58"
         inkscape:connector-curvature="0" /><path
         d="m 722.786,272.984 c -0.686,-4.189 -0.31,-7.625 1.13,-10.298 1.441,-2.674 3.861,-4.013 7.261,-4.013 3.162,0 5.936,1.393 8.324,4.174 2.387,2.783 3.904,6.161 4.549,10.137 l 0.163,1.064 c 0.643,4.124 0.252,7.535 -1.179,10.232 -1.43,2.698 -3.823,4.044 -7.18,4.044 -3.205,0 -6.006,-1.401 -8.404,-4.205 -2.4,-2.805 -3.899,-6.161 -4.5,-10.071 z m -3.582,1.047 c 0.84,5.336 2.815,9.6 5.923,12.793 3.107,3.197 6.855,4.794 11.245,4.794 4.173,0 7.351,-1.663 9.533,-4.986 2.185,-3.325 2.867,-7.525 2.051,-12.601 l -0.164,-1.063 c -0.859,-5.358 -2.837,-9.626 -5.937,-12.811 -3.095,-3.182 -6.829,-4.772 -11.195,-4.772 -4.194,0 -7.388,1.656 -9.581,4.967 -2.196,3.312 -2.872,7.517 -2.035,12.616 l 0.16,1.063"
         style="fill:#f58614;fill-opacity:1;fill-rule:nonzero;stroke:none;stroke-width:0.1"
         id="path60"
         inkscape:connector-curvature="0" /><path
         d="m 764.791,273.19 c -0.903,-4.45 -0.731,-7.979 0.518,-10.595 1.245,-2.616 3.472,-3.922 6.677,-3.922 2.086,0 3.969,0.622 5.646,1.865 1.679,1.243 3.13,2.909 4.357,5.006 l 3.226,16.234 c -0.452,1.901 -1.371,3.468 -2.759,4.7 -1.389,1.231 -3.296,1.846 -5.727,1.846 -2.926,0 -5.411,-1.315 -7.454,-3.952 -2.043,-2.635 -3.495,-6.138 -4.355,-10.501 z m -3.613,0.681 c 1.18,5.939 3.059,10.379 5.63,13.323 2.569,2.95 5.856,4.424 9.858,4.424 2.192,0 4.118,-0.528 5.774,-1.583 1.657,-1.053 2.904,-2.516 3.743,-4.388 l 1.484,5.324 h 3.161 l -6.873,-34.46 c -0.966,-4.797 -2.833,-8.421 -5.598,-10.871 -2.762,-2.454 -6.265,-3.68 -10.502,-3.68 -1.463,0 -3.06,0.209 -4.79,0.629 -1.731,0.42 -3.189,0.973 -4.372,1.663 l 1.613,3.257 c 1.119,-0.667 2.359,-1.183 3.727,-1.547 1.365,-0.367 2.845,-0.549 4.437,-0.549 2.946,0 5.463,1 7.549,3 2.086,1.999 3.475,4.7 4.162,8.098 l 0.776,3.936 c -1.337,-1.633 -2.872,-2.885 -4.615,-3.757 -1.743,-0.87 -3.657,-1.305 -5.744,-1.305 -3.657,0 -6.415,1.691 -8.276,5.08 -1.861,3.388 -2.286,7.631 -1.273,12.727 l 0.129,0.679"
         style="fill:#f58614;fill-opacity:1;fill-rule:nonzero;stroke:none;stroke-width:0.1"
         id="path62"
         inkscape:connector-curvature="0" /><path
         d="m 809.632,258.803 c 2.367,0 4.7,0.655 7.003,1.968 2.303,1.312 4.087,2.957 5.354,4.936 l 1.455,7.324 h -7.163 c -2.992,0 -5.648,-0.758 -7.971,-2.272 -2.323,-1.52 -3.7,-3.363 -4.13,-5.535 -0.409,-2.024 -0.139,-3.597 0.807,-4.727 0.946,-1.13 2.494,-1.694 4.645,-1.694 z m 11.101,-2.742 c 0.043,1.591 0.084,2.714 0.13,3.37 0.04,0.658 0.15,1.404 0.323,2.243 -1.55,-1.808 -3.433,-3.307 -5.65,-4.503 -2.213,-1.192 -4.558,-1.786 -7.03,-1.786 -2.97,0 -5.197,0.915 -6.682,2.758 -1.482,1.836 -1.925,4.242 -1.322,7.208 0.668,3.444 2.452,6.079 5.355,7.907 2.904,1.829 6.604,2.743 11.1,2.743 h 7.067 l 0.872,4.323 c 0.538,2.647 0.219,4.641 -0.953,5.986 -1.172,1.342 -3.103,2.014 -5.791,2.014 -2.322,0 -4.475,-0.686 -6.453,-2.063 -1.98,-1.377 -3.153,-3.023 -3.518,-4.937 l -3.387,0.032 -0.066,0.195 c 0.431,2.795 1.99,5.172 4.679,7.13 2.689,1.958 5.873,2.937 9.551,2.937 3.377,0 6.012,-0.998 7.904,-2.985 1.894,-1.991 2.487,-4.781 1.777,-8.375 l -3.42,-17.164 c -0.28,-1.29 -0.468,-2.495 -0.566,-3.614 -0.098,-1.121 -0.102,-2.258 -0.015,-3.419 h -3.905"
         style="fill:#f58614;fill-opacity:1;fill-rule:nonzero;stroke:none;stroke-width:0.1"
         id="path64"
         inkscape:connector-curvature="0" /><path
         d="m 849.67,285.229 c 1.44,2.065 3.15,3.644 5.129,4.742 1.98,1.097 4.185,1.647 6.613,1.647 3.292,0 5.68,-1.18 7.164,-3.534 1.486,-2.355 1.753,-5.943 0.808,-10.761 l -4.26,-21.262 h -3.742 l 4.26,21.271 c 0.838,4.292 0.745,7.195 -0.276,8.715 -1.022,1.52 -2.845,2.277 -5.469,2.277 -2.322,0 -4.448,-0.753 -6.374,-2.262 -1.923,-1.508 -3.51,-3.482 -4.758,-5.917 l -4.807,-24.084 h -3.742 l 6.968,34.91 h 3.323 l -0.837,-5.742"
         style="fill:#f58614;fill-opacity:1;fill-rule:nonzero;stroke:none;stroke-width:0.1"
         id="path66"
         inkscape:connector-curvature="0" /></g><g
       id="g978"
       inkscape:export-filename="/home/gh05tm4n/Documents/Terminal/frontend/app/src/main/res/drawable/logo.png"
       inkscape:export-xdpi="47.040001"
       inkscape:export-ydpi="47.040001"><circle
         transform="scale(1,-1)"
         r="442.00894"
         cy="-474.96463"
         cx="677.5946"
         id="path938"
         style="fill:#ffffff;fill-opacity:1;stroke:none;stroke-width:42.60469055;stroke-linecap:round;stroke-linejoin:round;stroke-miterlimit:4;stroke-dasharray:none;stroke-dashoffset:0;stroke-opacity:1" /><path
         d="M 728.64916,477.67612 627.73612,34.478518 c 27.39508,-2.932294 54.44763,-3.578 83.37482,-1.349272 L 815.00255,477.67612 h -86.35339"
         style="fill:#f1304d;fill-opacity:1;fill-rule:nonzero;stroke:none;stroke-width:0.231436"
         id="path18"
         inkscape:connector-curvature="0" /><path
         id="path16"
         d="M 472.24031,82.66633 C 498.1866,69.090294 525.57936,58.097085 554.11542,49.897308 L 658.36808,497.10339 c 64.10314,0 348.88052,0 461.12922,0 -1.4765,29.7673 -5.9132,58.76623 -13.0136,86.71444 -127.20648,0 -480.78281,0 -519.62934,0 L 472.24031,82.66633"
         style="fill:#f1304d;fill-opacity:1;fill-rule:nonzero;stroke:none;stroke-width:0.231436"
         inkscape:connector-curvature="0" /><path
         d="m 269.4723,645.67604 h 498.95748 l -9.88463,-43.10958 h 87.21665 l 30.62824,129.63887 H 317.7591 c -18.94072,-26.48554 -35.22455,-55.31552 -48.2868,-86.52929"
         style="fill:#f1304d;fill-opacity:1;fill-rule:nonzero;stroke:none;stroke-width:0.231436"
         id="path20"
         inkscape:connector-curvature="0" /><circle
         style="fill:none;fill-opacity:1;stroke:#ffffff;stroke-width:47.87475204;stroke-linecap:round;stroke-linejoin:round;stroke-miterlimit:4;stroke-dasharray:none;stroke-dashoffset:0;stroke-opacity:1"
         id="circle957"
         cx="677.5946"
         cy="-474.96463"
         r="496.68622"
         transform="scale(1,-1)" /></g></g></svg>