<?xml version="1.0" encoding="UTF-8" standalone="no"?>
<!-- Created with Inkscape (http://www.inkscape.org/) -->

<svg
   xmlns:dc="http://purl.org/dc/elements/1.1/"
   xmlns:cc="http://creativecommons.org/ns#"
   xmlns:rdf="http://www.w3.org/1999/02/22-rdf-syntax-ns#"
   xmlns:svg="http://www.w3.org/2000/svg"
   xmlns="http://www.w3.org/2000/svg"
   xmlns:sodipodi="http://sodipodi.sourceforge.net/DTD/sodipodi-0.dtd"
   xmlns:inkscape="http://www.inkscape.org/namespaces/inkscape"
   width="210mm"
   height="297mm"
   viewBox="0 0 210 297"
   version="1.1"
   id="svg8"
   inkscape:version="0.92.4 5da689c313, 2019-01-14"
   sodipodi:docname="password_eye.svg">
  <defs
     id="defs2" />
  <sodipodi:namedview
     id="base"
     pagecolor="#ffffff"
     bordercolor="#666666"
     borderopacity="1.0"
     inkscape:pageopacity="0.0"
     inkscape:pageshadow="2"
     inkscape:zoom="1.0978516"
     inkscape:cx="11.9694"
     inkscape:cy="705.73919"
     inkscape:document-units="mm"
     inkscape:current-layer="layer1"
     showgrid="false"
     showborder="false"
     inkscape:object-nodes="false"
     inkscape:window-width="1920"
     inkscape:window-height="1054"
     inkscape:window-x="0"
     inkscape:window-y="0"
     inkscape:window-maximized="1" />
  <metadata
     id="metadata5">
    <rdf:RDF>
      <cc:Work
         rdf:about="">
        <dc:format>image/svg+xml</dc:format>
        <dc:type
           rdf:resource="http://purl.org/dc/dcmitype/StillImage" />
        <dc:title></dc:title>
      </cc:Work>
    </rdf:RDF>
  </metadata>
  <g
     inkscape:label="Layer 1"
     inkscape:groupmode="layer"
     id="layer1">
    <path
       style="fill:#646c78;fill-opacity:1;stroke:none;stroke-width:3.80830622;stroke-linecap:round;stroke-linejoin:miter;stroke-miterlimit:4;stroke-dasharray:none;stroke-opacity:1"
       d="M -35.535156 235.70898 A 203.22647 175.79789 0 0 0 -114.52539 249.63867 L -94.314453 278.18164 A 217.96828 134.80875 0 0 1 -35.535156 273.05469 A 217.96828 134.80875 0 0 1 146.77344 334.07031 A 203.22647 175.79789 0 0 0 -35.535156 235.70898 z M -149.24219 266.01953 A 203.22647 175.79789 0 0 0 -217.66797 333.99805 A 217.96828 134.80875 0 0 1 -133.85938 287.74023 L -149.24219 266.01953 z M -35.523438 318.2207 A 99.284817 99.284817 0 0 0 -63.134766 322.21289 L 45.160156 475.15234 A 99.284817 99.284817 0 0 0 63.761719 417.50586 A 99.284817 99.284817 0 0 0 60.324219 391.75781 A 46.454357 46.454357 0 0 1 29.148438 403.84375 A 46.454357 46.454357 0 0 1 -17.306641 357.38867 A 46.454357 46.454357 0 0 1 -2.9550781 323.83398 A 99.284817 99.284817 0 0 0 -35.523438 318.2207 z M -97.052734 339.7207 A 99.284817 99.284817 0 0 0 -134.80859 417.50586 A 99.284817 99.284817 0 0 0 -35.523438 516.79102 A 99.284817 99.284817 0 0 0 17.412109 501.36523 L -97.052734 339.7207 z "
       transform="scale(0.26458333)"
       id="path824"
       inkscape:export-xdpi="16.860001"
       inkscape:export-ydpi="16.860001" />
    <path
       style="fill:none;stroke:#646c78;stroke-width:10;stroke-linecap:round;stroke-linejoin:round;stroke-opacity:1;stroke-miterlimit:4;stroke-dasharray:none"
       d="m -40.478377,53.59593 64.327685,90.84348"
       id="path847"
       inkscape:connector-curvature="0"
       inkscape:export-xdpi="16.860001"
       inkscape:export-ydpi="16.860001" />
  </g>
</svg>
