<?xml version="1.0" encoding="UTF-8" standalone="no"?>
<!-- Created with Inkscape (http://www.inkscape.org/) -->

<svg
   xmlns:dc="http://purl.org/dc/elements/1.1/"
   xmlns:cc="http://creativecommons.org/ns#"
   xmlns:rdf="http://www.w3.org/1999/02/22-rdf-syntax-ns#"
   xmlns:svg="http://www.w3.org/2000/svg"
   xmlns="http://www.w3.org/2000/svg"
   xmlns:sodipodi="http://sodipodi.sourceforge.net/DTD/sodipodi-0.dtd"
   xmlns:inkscape="http://www.inkscape.org/namespaces/inkscape"
   width="210mm"
   height="297mm"
   viewBox="0 0 210 297"
   version="1.1"
   id="svg8"
   inkscape:version="0.92.4 5da689c313, 2019-01-14"
   sodipodi:docname="recover_password.svg">
  <defs
     id="defs2" />
  <sodipodi:namedview
     id="base"
     pagecolor="#ffffff"
     bordercolor="#666666"
     borderopacity="1.0"
     inkscape:pageopacity="0.0"
     inkscape:pageshadow="2"
     inkscape:zoom="0.54892578"
     inkscape:cx="87.0102"
     inkscape:cy="710.49478"
     inkscape:document-units="mm"
     inkscape:current-layer="layer1"
     showgrid="false"
     showborder="false"
     inkscape:object-nodes="false"
     inkscape:window-width="1920"
     inkscape:window-height="1054"
     inkscape:window-x="0"
     inkscape:window-y="0"
     inkscape:window-maximized="1" />
  <metadata
     id="metadata5">
    <rdf:RDF>
      <cc:Work
         rdf:about="">
        <dc:format>image/svg+xml</dc:format>
        <dc:type
           rdf:resource="http://purl.org/dc/dcmitype/StillImage" />
        <dc:title></dc:title>
      </cc:Work>
    </rdf:RDF>
  </metadata>
  <g
     inkscape:label="Layer 1"
     inkscape:groupmode="layer"
     id="layer1">
    <g
       id="g970">
      <path
         inkscape:export-ydpi="23.76"
         inkscape:export-xdpi="23.76"
         id="path920"
         transform="scale(0.26458333)"
         d="m -21.857422,-17.886719 c -275.096968,9e-6 -498.306638,223.203809 -498.306638,498.300779 0,113.10342 37.73645,217.43068 101.29101,301.08594 l 14.32032,-11.67578 C -465.46071,689.39098 -501.5918,589.14397 -501.5918,480.41406 -501.5918,215.35626 -286.91522,0.68555548 -21.857422,0.68554688 59.742841,0.68555054 136.5628,21.039553 203.81836,56.9375 L 200.14258,34.222656 C 133.28616,0.87690093 57.896585,-17.886715 -21.857422,-17.886719 Z"
         style="color:#000000;font-style:normal;font-variant:normal;font-weight:normal;font-stretch:normal;font-size:medium;line-height:normal;font-family:sans-serif;font-variant-ligatures:normal;font-variant-position:normal;font-variant-caps:normal;font-variant-numeric:normal;font-variant-alternates:normal;font-feature-settings:normal;text-indent:0;text-align:start;text-decoration:none;text-decoration-line:none;text-decoration-style:solid;text-decoration-color:#000000;letter-spacing:normal;word-spacing:normal;text-transform:none;writing-mode:lr-tb;direction:ltr;text-orientation:mixed;dominant-baseline:auto;baseline-shift:baseline;text-anchor:start;white-space:normal;shape-padding:0;clip-rule:nonzero;display:inline;overflow:visible;visibility:visible;opacity:1;isolation:auto;mix-blend-mode:normal;color-interpolation:sRGB;color-interpolation-filters:linearRGB;solid-color:#000000;solid-opacity:1;vector-effect:none;fill:#f1304d;fill-opacity:1;fill-rule:nonzero;stroke:#ff304d;stroke-width:30.00000038;stroke-linecap:round;stroke-linejoin:round;stroke-miterlimit:4;stroke-dasharray:none;stroke-dashoffset:0;stroke-opacity:1;color-rendering:auto;image-rendering:auto;shape-rendering:auto;text-rendering:auto;enable-background:accumulate" />
      <path
         inkscape:export-ydpi="23.76"
         inkscape:export-xdpi="23.76"
         id="path918"
         transform="scale(0.26458333)"
         d="m 364.07031,165.26953 -14.30859,11.66602 c 67.57635,82.66519 108.10742,188.31345 108.10742,303.47851 0,265.05778 -214.66877,479.73438 -479.726562,479.73438 -89.752438,0 -173.722778,-24.62194 -245.542968,-67.47266 l 3.80859,23.5293 c 71.60442,39.82231 154.03092,62.51562 241.734378,62.51562 275.096962,0 498.298832,-223.20968 498.298832,-498.30664 0,-119.53135 -42.14461,-229.26092 -112.3711,-315.14453 z"
         style="color:#000000;font-style:normal;font-variant:normal;font-weight:normal;font-stretch:normal;font-size:medium;line-height:normal;font-family:sans-serif;font-variant-ligatures:normal;font-variant-position:normal;font-variant-caps:normal;font-variant-numeric:normal;font-variant-alternates:normal;font-feature-settings:normal;text-indent:0;text-align:start;text-decoration:none;text-decoration-line:none;text-decoration-style:solid;text-decoration-color:#000000;letter-spacing:normal;word-spacing:normal;text-transform:none;writing-mode:lr-tb;direction:ltr;text-orientation:mixed;dominant-baseline:auto;baseline-shift:baseline;text-anchor:start;white-space:normal;shape-padding:0;clip-rule:nonzero;display:inline;overflow:visible;visibility:visible;opacity:1;isolation:auto;mix-blend-mode:normal;color-interpolation:sRGB;color-interpolation-filters:linearRGB;solid-color:#000000;solid-opacity:1;vector-effect:none;fill:#f1304d;fill-opacity:1;fill-rule:nonzero;stroke:#ff304d;stroke-width:30.00000038;stroke-linecap:round;stroke-linejoin:round;stroke-miterlimit:4;stroke-dasharray:none;stroke-dashoffset:0;stroke-opacity:1;color-rendering:auto;image-rendering:auto;shape-rendering:auto;text-rendering:auto;enable-background:accumulate" />
      <path
         inkscape:export-ydpi="23.76"
         inkscape:export-xdpi="23.76"
         sodipodi:nodetypes="csssscssscc"
         inkscape:connector-curvature="0"
         id="circle819"
         d="m -68.173001,122.64417 c 0.104051,2.54023 0.359522,42.53068 0.7575,44.98085 0.807932,4.97409 2.203177,9.745 4.111172,14.24112 2.64355,6.22943 6.271398,11.93133 10.685225,16.91526 3.538968,3.99608 7.583225,7.53057 12.030538,10.50528 9.878742,6.60773 21.746219,10.45353 34.4820606,10.46136 17.8453254,-0.0214 33.9820904,-7.57745 45.3287064,-19.70632 4.070826,-4.35147 7.525081,-9.29156 10.220452,-14.68348 2.938603,-5.87849 4.975183,-12.29402 5.925323,-19.06942 0.283382,-2.02078 0.470122,-42.2462 0.555323,-44.3263 z"
         style="fill:none;fill-opacity:1;stroke:#f1304d;stroke-width:7.9375;stroke-linecap:round;stroke-linejoin:round;stroke-miterlimit:4;stroke-dasharray:none;stroke-opacity:1" />
      <path
         inkscape:export-ydpi="23.76"
         inkscape:export-xdpi="23.76"
         inkscape:connector-curvature="0"
         id="path826"
         d="M -67.483725,142.72458 H 55.213956"
         style="fill:none;stroke:#f1304d;stroke-width:7.9375;stroke-linecap:round;stroke-linejoin:miter;stroke-miterlimit:4;stroke-dasharray:none;stroke-opacity:1" />
      <path
         inkscape:export-ydpi="23.76"
         inkscape:export-xdpi="23.76"
         inkscape:connector-curvature="0"
         id="path828"
         d="m -6.0079084,179.51816 0.4477683,13.0078"
         style="fill:none;stroke:#f1304d;stroke-width:10.58333333;stroke-linecap:round;stroke-linejoin:miter;stroke-miterlimit:4;stroke-dasharray:none;stroke-opacity:1" />
      <path
         inkscape:export-ydpi="23.76"
         inkscape:export-xdpi="23.76"
         inkscape:connector-curvature="0"
         id="path958"
         d="m -6.9632343,35.073767 c -11.1157037,0.0077 -21.4953287,3.773742 -30.0560437,10.167856 -3.853932,2.878537 -7.344519,6.289344 -10.392648,10.132716 -3.80169,4.793514 -6.914743,10.260493 -9.179801,16.220715 -1.634771,4.301691 -2.829333,8.861406 -3.519683,13.607436 -0.14627,1.005567 -0.116716,1.495208 -0.153996,2.720765 -0.0373,1.225556 -0.07096,2.825478 -0.10387,4.687568 -0.0658,3.724185 -0.124809,8.488587 -0.175699,13.253967 -0.07125,6.67287 -0.127461,12.36919 -0.167431,16.09773 h 7.933364 c 0.04878,-3.52135 0.09217,-8.52874 0.172083,-16.01401 0.0508,-4.75717 0.108484,-9.509862 0.173632,-13.197127 0.0326,-1.84363 0.06793,-3.423317 0.103355,-4.587833 0.0354,-1.164516 0.140814,-2.274887 0.07441,-1.818494 0.606988,-4.172945 1.65504,-8.169254 3.084049,-11.929504 1.97984,-5.209689 4.692465,-9.966111 7.978325,-14.109216 2.634599,-3.321947 5.636623,-6.250033 8.924002,-8.705411 7.300021,-5.45248 15.97257,-8.581503 25.3043973,-8.589658 h 0.00826 c 13.0767504,0.01998 24.9095657,6.173973 33.3493877,16.248105 3.028497,3.61493 5.608055,7.732871 7.624858,12.238013 2.198798,4.911683 3.727518,10.282994 4.441586,15.969049 -0.0696,-0.554408 0.02721,0.604102 0.05271,1.74408 0.02551,1.139979 0.04885,2.69752 0.07235,4.523237 0.047,3.651438 0.08936,8.384079 0.126609,13.119099 0.0372,4.73502 0.07037,9.47283 0.09767,13.14648 0.0078,1.05173 0.01357,1.42749 0.01963,1.96319 h 7.936992 c -0.0085,-0.91792 -0.01085,-0.90184 -0.01905,-2.02158 -0.0272,-3.66949 -0.06038,-8.41003 -0.09766,-13.15062 -0.03731,-4.74058 -0.0798,-9.479447 -0.127132,-13.157854 -0.02381,-1.839203 -0.04741,-3.411315 -0.0739,-4.597651 -0.02651,-1.186336 0.01482,-1.551678 -0.111628,-2.559018 C 45.524286,80.012968 43.78169,73.882099 41.26179,68.253139 38.95047,63.090099 35.985086,58.349126 32.476798,54.161491 22.698356,42.489527 8.6205547,35.09463 -6.9549052,35.073767 a 3.9691468,3.9691468 0 0 0 -0.00775,0 z"
         style="color:#000000;font-style:normal;font-variant:normal;font-weight:normal;font-stretch:normal;font-size:medium;line-height:normal;font-family:sans-serif;font-variant-ligatures:normal;font-variant-position:normal;font-variant-caps:normal;font-variant-numeric:normal;font-variant-alternates:normal;font-feature-settings:normal;text-indent:0;text-align:start;text-decoration:none;text-decoration-line:none;text-decoration-style:solid;text-decoration-color:#000000;letter-spacing:normal;word-spacing:normal;text-transform:none;writing-mode:lr-tb;direction:ltr;text-orientation:mixed;dominant-baseline:auto;baseline-shift:baseline;text-anchor:start;white-space:normal;shape-padding:0;clip-rule:nonzero;display:inline;overflow:visible;visibility:visible;opacity:1;isolation:auto;mix-blend-mode:normal;color-interpolation:sRGB;color-interpolation-filters:linearRGB;solid-color:#000000;solid-opacity:1;vector-effect:none;fill:#f1304d;fill-opacity:1;fill-rule:nonzero;stroke:#f1304d;stroke-width:2.64583325;stroke-linecap:round;stroke-linejoin:round;stroke-miterlimit:4;stroke-dasharray:none;stroke-dashoffset:0;stroke-opacity:1;color-rendering:auto;image-rendering:auto;shape-rendering:auto;text-rendering:auto;enable-background:accumulate" />
      <path
         inkscape:export-ydpi="23.76"
         inkscape:export-xdpi="23.76"
         id="path856"
         transform="scale(0.26458333)"
         d="M -307.18945 693.17969 A 9.0020281 9.0020281 0 0 0 -313.02148 695.20117 L -418.87305 781.5 L -408.4082 796.19141 L -313.73047 719.00195 L -271.83203 978.00391 L -517.07617 884.78711 L -454.45508 833.73242 L -464.91992 819.04102 L -540.53711 880.68945 A 9.0020281 9.0020281 0 0 0 -538.04492 896.07812 L -263.65625 1000.3652 A 9.0020281 9.0020281 0 0 0 -251.57031 990.51367 L -298.45312 700.74219 A 9.0020281 9.0020281 0 0 0 -307.18945 693.17969 z "
         style="color:#000000;font-style:normal;font-variant:normal;font-weight:normal;font-stretch:normal;font-size:medium;line-height:normal;font-family:sans-serif;font-variant-ligatures:normal;font-variant-position:normal;font-variant-caps:normal;font-variant-numeric:normal;font-variant-alternates:normal;font-feature-settings:normal;text-indent:0;text-align:start;text-decoration:none;text-decoration-line:none;text-decoration-style:solid;text-decoration-color:#000000;letter-spacing:normal;word-spacing:normal;text-transform:none;writing-mode:lr-tb;direction:ltr;text-orientation:mixed;dominant-baseline:auto;baseline-shift:baseline;text-anchor:start;white-space:normal;shape-padding:0;clip-rule:nonzero;display:inline;overflow:visible;visibility:visible;opacity:1;isolation:auto;mix-blend-mode:normal;color-interpolation:sRGB;color-interpolation-filters:linearRGB;solid-color:#000000;solid-opacity:1;vector-effect:none;fill:#f1304d;fill-opacity:1;fill-rule:nonzero;stroke:#f1304d;stroke-width:30.00000038;stroke-linecap:round;stroke-linejoin:round;stroke-miterlimit:4;stroke-dasharray:none;stroke-dashoffset:0;stroke-opacity:1;color-rendering:auto;image-rendering:auto;shape-rendering:auto;text-rendering:auto;enable-background:accumulate" />
      <path
         inkscape:export-ydpi="23.76"
         inkscape:export-xdpi="23.76"
         id="path860"
         transform="scale(0.26458333)"
         d="M 197.21289 -47.525391 A 9.0020281 9.0020281 0 0 0 188.60547 -37.089844 L 235.48828 252.68164 A 9.0020281 9.0020281 0 0 0 250.05859 258.22266 L 364.07031 165.26953 L 353.60547 150.57812 L 250.76562 234.42188 L 208.86719 -24.580078 L 454.11133 68.636719 L 399.65234 113.03711 L 410.11719 127.73047 L 477.57227 72.734375 A 9.0020281 9.0020281 0 0 0 475.08203 57.345703 L 200.69336 -46.941406 A 9.0020281 9.0020281 0 0 0 197.21289 -47.525391 z "
         style="color:#000000;font-style:normal;font-variant:normal;font-weight:normal;font-stretch:normal;font-size:medium;line-height:normal;font-family:sans-serif;font-variant-ligatures:normal;font-variant-position:normal;font-variant-caps:normal;font-variant-numeric:normal;font-variant-alternates:normal;font-feature-settings:normal;text-indent:0;text-align:start;text-decoration:none;text-decoration-line:none;text-decoration-style:solid;text-decoration-color:#000000;letter-spacing:normal;word-spacing:normal;text-transform:none;writing-mode:lr-tb;direction:ltr;text-orientation:mixed;dominant-baseline:auto;baseline-shift:baseline;text-anchor:start;white-space:normal;shape-padding:0;clip-rule:nonzero;display:inline;overflow:visible;visibility:visible;opacity:1;isolation:auto;mix-blend-mode:normal;color-interpolation:sRGB;color-interpolation-filters:linearRGB;solid-color:#000000;solid-opacity:1;vector-effect:none;fill:#f1304d;fill-opacity:1;fill-rule:nonzero;stroke:#f1304d;stroke-width:30.00000038;stroke-linecap:round;stroke-linejoin:round;stroke-miterlimit:4;stroke-dasharray:none;stroke-dashoffset:0;stroke-opacity:1;color-rendering:auto;image-rendering:auto;shape-rendering:auto;text-rendering:auto;enable-background:accumulate" />
    </g>
  </g>
</svg>
